<svg xmlns:sketch="http://www.bohemiancoding.com/sketch/ns" xmlns="http://www.w3.org/2000/svg" width="260" height="150" viewBox="0 0 260 150"><title>icon-files</title><desc>Created with Sketch.</desc><g sketch:type="MSLayerGroup"><g sketch:type="MSShapeGroup"><path fill="#222" d="M58 43.994v87.012c0 6.621 5.37 11.994 11.991 11.994h110.002c5.522 0 10.007-4.477 10.007-9.996v-73.005c0-6.624-5.374-11.999-11.999-11.999h-62.002c-.475 0-1.312-.417-1.593-.792l-9.611-12.815c-1.035-1.38-3.063-2.393-4.793-2.393h-29.995c-6.634 0-12.007 5.368-12.007 11.994zm67-19.997v91.006c0 6.628 5.368 11.997 11.993 11.997h62.014c6.618 0 11.993-5.372 11.993-11.993v-71.007c0-.53-.211-1.039-.586-1.414l-30-30c-.375-.375-.884-.586-1.414-.586h-42.005c-6.622 0-11.995 5.373-11.995 11.997zm-76 31.005v75.996c0 6.635 5.371 12.002 12.001 12.002h118.999c2.666 0 2.666-4 0-4-.146 0-.476-.023-.922-.098-.753-.125-1.503-.351-2.184-.691-1.844-.922-2.894-2.496-2.894-5.211v-62.005c0-6.617-5.375-11.995-11.996-11.995h-53.005c-.475 0-1.312-.417-1.593-.792l-9.611-12.815c-1.036-1.381-3.066-2.393-4.8-2.393h-31.997c-6.623 0-11.998 5.375-11.998 12.002z"/><g><path fill="#D3D3D8" d="M60 43.994c0-5.519 4.475-9.994 10.007-9.994h29.996c1.103 0 2.537.719 3.192 1.593l9.611 12.814c.66.88 2.09 1.593 3.193 1.593h62.002c5.522 0 9.999 4.481 9.999 9.999v73.005c0 4.416-3.591 7.996-8.007 7.996h-110.002c-5.518 0-9.991-4.479-9.991-9.994v-87.012z"/><path fill="#222" d="M178.001 49h-62.002c-.789 0-1.922-.565-2.393-1.192l-9.611-12.815c-.847-1.128-2.577-1.993-3.993-1.993h-29.995c-6.082 0-11.007 4.92-11.007 10.994v87.012c0 6.069 4.922 10.994 10.991 10.994h110.002c4.97 0 9.007-4.029 9.007-8.996v-73.005c0-6.071-4.926-10.999-10.999-10.999zm8.999 84.004c0 3.861-3.141 6.996-7.007 6.996h-110.002c-4.964 0-8.991-4.029-8.991-8.994v-87.012c0-4.969 4.029-8.994 9.007-8.994h29.996c.786 0 1.924.568 2.392 1.192l9.611 12.815c.848 1.132 2.575 1.993 3.993 1.993h62.002c4.968 0 8.999 4.032 8.999 8.999v73.005z"/></g><path fill="#fff" d="M127 23.997c0-5.521 4.479-9.997 9.995-9.997h42.005l30 30v71.007c0 5.519-4.481 9.993-9.993 9.993h-62.014c-5.518 0-9.993-4.472-9.993-9.997v-91.006z"/><path fill="#9169F2" d="M138 26.998c0-1.103.898-1.998 1.992-1.998h41.016c1.101 0 2.627.635 3.403 1.411l12.178 12.178c.779.779 1.411 2.309 1.411 3.418v22.985c0 1.11-.895 2.008-1.996 2.008h-56.008c-1.102 0-1.996-.896-1.996-1.998v-38.004z"/><g fill="#222"><path d="M159 42c3.313 0 6-2.687 6-6s-2.687-6-6-6-6 2.687-6 6 2.687 6 6 6zm0-10c2.209 0 4 1.791 4 4s-1.791 4-4 4-4-1.791-4-4 1.791-4 4-4zM146.707 57.707l8.293-8.293 8.293 8.293c.391.391 1.023.391 1.414 0s.391-1.023 0-1.414l-2.793-2.793 10.086-10.086 16.293 16.293c.391.391 1.023.391 1.414 0s.391-1.023 0-1.414l-17-17c-.391-.391-1.023-.391-1.414 0l-10.793 10.793-4.793-4.793c-.391-.391-1.023-.391-1.414 0l-9 9c-.391.391-.391 1.023 0 1.414s1.023.391 1.414 0zM209.707 43.293l-30-30c-.187-.188-.441-.293-.707-.293h-24.347c-.103-.31-.224-.626-.384-.947-.945-1.89-2.689-3.053-5.269-3.053-2.629 0-4.373 1.395-5.298 3.615l-.136.385h-6.571c-6.07 0-10.995 4.925-10.995 10.997v91.006c0 6.076 4.92 10.997 10.993 10.997h62.014c6.066 0 10.993-4.924 10.993-10.993v-71.007c0-.265-.105-.52-.293-.707zm-60.707-32.293c1.795 0 2.863.712 3.48 1.947l.022.053h-6.77c.653-1.283 1.677-2 3.268-2zm50.007 113h-62.014c-4.968 0-8.993-4.025-8.993-8.997v-91.006c0-4.968 4.029-8.997 8.995-8.997h6.08c-.046.363-.075.708-.075 1v8h-3.008c-1.648 0-2.992 1.345-2.992 2.998v38.005c0 1.653 1.342 2.997 2.996 2.997h56.008c1.655 0 2.996-1.348 2.996-3.007v-22.986c0-1.374-.736-3.158-1.704-4.125l-12.178-12.178c-.964-.965-2.746-1.704-4.11-1.704h-28.008v-3h-2v3h-6v-8c0-.144.017-.427.068-.8l.039-.2h33.479l29.414 29.414v70.593c0 4.964-4.031 8.993-8.993 8.993zm-54.007-98h6v3c0 .115-.014.345-.054.649-.067.51-.19 1.017-.375 1.479-.485 1.214-1.274 1.872-2.571 1.872s-2.086-.658-2.571-1.872c-.185-.462-.308-.97-.375-1.479-.04-.304-.054-.534-.054-.649v-3zm-1.429 5.872c.765 1.911 2.226 3.128 4.429 3.128s3.664-1.217 4.429-3.128c.43-1.079.571-2.131.571-2.872v-3h28.008c.834 0 2.106.528 2.696 1.118l12.178 12.178c.591.592 1.118 1.867 1.118 2.711v22.985c0 .558-.447 1.008-.996 1.008h-56.008c-.549 0-.996-.448-.996-.998v-38.004c0-.549.449-.998.992-.998h3.008v3c0 .741.141 1.793.571 2.872zM185.999 108h-13.998c-.556 0-1.001.447-1.001 1 0 .557.448 1 1.001 1h13.998c.556 0 1.001-.447 1.001-1 0-.557-.448-1-1.001-1zM198.004 100h-26.008c-.557 0-.996.447-.996 1 0 .557.446 1 .996 1h26.008c.557 0 .996-.447.996-1 0-.557-.446-1-.996-1zM198.004 76h-26.008c-.557 0-.996.447-.996 1 0 .557.446 1 .996 1h26.008c.557 0 .996-.447.996-1 0-.557-.446-1-.996-1zM198.004 92h-26.008c-.557 0-.996.447-.996 1 0 .557.446 1 .996 1h26.008c.557 0 .996-.447.996-1 0-.557-.446-1-.996-1zM172 86h22c.553 0 1-.447 1-1 0-.557-.448-1-1-1h-22c-.553 0-1 .447-1 1 0 .557.448 1 1 1z"/></g><path fill="#E9E9EB" d="M179 14l30 30h-20c-5.523 0-10-4.475-10-10v-20z"/><path fill="#222" d="M209.707 43.293l-30-30c-.63-.63-1.707-.184-1.707.707v20c0 6.077 4.924 11 11 11h20c.891 0 1.337-1.077.707-1.707zm-29.707-9.293v-17.586l26.586 26.586h-17.586c-4.971 0-9-4.028-9-9z"/><g><path fill="#fff" d="M51 55.002c0-5.524 4.481-10.002 9.998-10.002h31.997c1.107 0 2.544.719 3.199 1.593l9.611 12.814c.66.88 2.088 1.593 3.193 1.593h53.005c5.521 0 9.996 4.487 9.996 9.995v62.005c0 8 8 8 8 8h-118.998c-5.523 0-10.001-4.47-10.001-10.002v-75.996z"/><path fill="#222" d="M180 140c-.198 0-.582-.027-1.086-.111-.846-.141-1.689-.395-2.467-.783-2.172-1.086-3.447-2.999-3.447-6.106v-62.005c0-6.064-4.927-10.995-10.996-10.995h-53.005c-.79 0-1.922-.565-2.393-1.192l-9.611-12.815c-.847-1.129-2.581-1.993-4-1.993h-31.997c-6.071 0-10.998 4.928-10.998 11.002v75.996c0 6.082 4.923 11.002 11.001 11.002h118.999c1.334 0 1.334-2 0-2zm-128-9.002v-75.996c0-4.97 4.032-9.002 8.998-9.002h31.997c.791 0 1.932.569 2.399 1.192l9.611 12.815c.849 1.132 2.575 1.993 3.994 1.993h53.005c4.965 0 8.996 4.035 8.996 8.995v62.005c0 3.19 1.173 5.49 3.147 7h-113.146c-4.974 0-9.001-4.025-9.001-9.002z"/></g></g><g sketch:type="MSShapeGroup" fill="#7543C4" transform="translate(4 8)"><path d="M45 7v-2s5 0 5-5h2s0 5 5 5v2s-5 0-5 5h-2s0-5-5-5z"/><path d="M25 107c3.313 0 6-2.687 6-6s-2.687-6-6-6-6 2.687-6 6 2.687 6 6 6zm0-4c-1.104 0-2-.896-2-2s.896-2 2-2 2 .896 2 2-.896 2-2 2z"/><circle cx="3" cy="46" r="3"/><path d="M240 88v-2s5 0 5-5h2s0 5 5 5v2s-5 0-5 5h-2s0-5-5-5z"/><path d="M221 31c3.313 0 6-2.687 6-6s-2.687-6-6-6-6 2.687-6 6 2.687 6 6 6zm0-4c-1.104 0-2-.896-2-2s.896-2 2-2 2 .896 2 2-.896 2-2 2z"/><circle cx="206" cy="136" r="3"/></g></g></svg>