<svg xmlns:sketch="http://www.bohemiancoding.com/sketch/ns" xmlns="http://www.w3.org/2000/svg" width="260" height="150" viewBox="0 0 260 150"><title>icon-contact</title><desc>Created with Sketch.</desc><g sketch:type="MSPage"><g sketch:type="MSLayerGroup"><path sketch:type="MSShapeGroup" fill="#222" d="M48 59.999v37.002c0 25.96 21.041 46.999 47 46.999 25.961 0 47-21.04 47-46.999v-37.002c0-25.96-21.041-46.999-47-46.999-25.961 0-47 21.04-47 46.999zm34 51.001c0-1.104-.896-2-2-2-9.807 0-16.053 6.662-19.409 17.402-1.138 3.641-1.865 7.518-2.268 11.391-.141 1.354-.231 2.611-.282 3.742-.031.688-.041 1.186-.041 1.465 0 1.104.896 2 2 2h70c1.104 0 2-.896 2-2 0-.279-.01-.777-.041-1.465-.051-1.131-.141-2.389-.282-3.742-.403-3.873-1.13-7.75-2.268-11.391-3.357-10.74-9.602-17.402-19.409-17.402-1.104 0-2 .896-2 2 0 27.334-26 27.334-26 0zm38.319-93.878l16.787 49.521c.275.811 1.037 1.357 1.894 1.357h62c.977 0 1.809-.704 1.973-1.666l8.328-49.141c1.131-6.669-3.543-12.193-10.31-12.193h-5.991c-5.16 0-8.648 2.325-10.539 6.105-.645 1.288-1.051 2.647-1.277 4.003-.137.821-.184 1.475-.184 1.892 0 2.667 4 2.667 4 0 0-.417-.047-1.071-.184-1.891-.229-1.356-.635-2.715-1.277-4.003-1.891-3.781-5.379-6.106-10.539-6.106h-45.998c-6.892 0-10.897 5.59-8.683 12.122zm8.681 95.868v30.01c0 1.104.896 2 2 2h78c1.104 0 2-.896 2-2v-30.01c0-6.623-5.371-11.99-11.998-11.99h-58.004c-6.627 0-11.998 5.367-11.998 11.99zm30-19.99c-1.104 0-2 .896-2 2v13c0 1.104.896 2 2 2h22c1.104 0 2-.896 2-2v-13c0-1.104-.896-2-2-2h-22zm-18.581-4.753l8.334 8.334c1.94 1.94 5.507 3.419 8.247 3.419h26c2.738 0 6.309-1.479 8.247-3.419l8.334-8.334c1.94-1.94 3.419-5.507 3.419-8.247v-30c0-1.104-.896-2-2-2-5.844 0-9.613-2.245-11.916-6.038-.816-1.346-1.389-2.802-1.753-4.259-.128-.509-.22-.978-.28-1.394l-.056-.451c-.183-2.567-3.995-2.431-3.995.142l-.023.449c-.031.414-.09.881-.18 1.387-.258 1.446-.723 2.89-1.436 4.22-2.002 3.736-5.549 5.944-11.361 5.944h-31c-1.104 0-2 .896-2 2v30c0 2.739 1.479 6.309 3.419 8.247zm71.581-23.247c0-4.723-2.139-7.93-5.605-9.664-1.179-.589-2.42-.961-3.66-1.168-.751-.125-1.35-.168-1.735-.168-1.104 0-2 .896-2 2v18c0 1.104.896 2 2 2 .385 0 .984-.043 1.734-.168 1.238-.207 2.479-.579 3.66-1.168 3.467-1.734 5.606-4.941 5.606-9.664z"/><g sketch:type="MSShapeGroup"><path fill="#FD7461" d="M122.213 16.479c-1.775-5.235 1.268-9.479 6.789-9.479h45.998l5.132.788 3.368 3.879 1.5 5.333s0-10 10-10h5.991c5.528 0 9.261 4.411 8.338 9.858l-8.329 49.142h-62l-16.787-49.521z"/><path fill="#EF503A" d="M122.428 19.229c-2.446-6.754 1.385-12.229 8.576-12.229h38.996v58h-31l-16.572-45.771z"/><path fill="#222" d="M185 27c-.553 0-1 .896-1 2v2c0 1.104.447 2 1 2s1-.896 1-2v-2c0-1.104-.447-2-1-2zm15.991-21h-5.991c-4.768 0-7.918 2.1-9.645 5.553-.131.259-.246.524-.356.79-.108-.266-.226-.53-.354-.79-1.727-3.453-4.877-5.553-9.645-5.553h-45.998c-6.207 0-9.73 4.917-7.736 10.8l16.787 49.521c.136.406.517.679.947.679h62c.488 0 .904-.352.986-.833l8.328-49.141c1.028-6.058-3.175-11.026-9.323-11.026zm7.353 10.691l-8.19 48.309h-60.438l-16.556-48.842c-1.554-4.586 1.005-8.158 5.842-8.158h45.998c3.982 0 6.457 1.65 7.855 4.447.498.997.817 2.075 1.002 3.155.062.378.104.728.125 1.04l.018.358c0 1.333 2 1.333 2 0l.018-.358c.021-.312.062-.662.125-1.04.185-1.08.504-2.158 1.002-3.155 1.398-2.797 3.873-4.447 7.855-4.447h5.991c4.909 0 8.171 3.855 7.353 8.691z"/><path fill="#fff" d="M131 112.99c0-5.518 4.469-9.99 10.01-9.99h17.99v-8h22v8h18.01c5.518 0 9.99 4.473 9.99 9.99v30.01h-78v-30.01z"/><path fill="#D3D3D8" d="M131 112.99c0-5.518 4.482-9.99 9.99-9.99h11.51c0 10 35.5 10 35.5 0h11.001c5.522 0 9.999 4.473 9.999 9.99v30.01h-78v-30.01zm29-13.99h20v2h-20v-2z"/><path fill="#222" d="M209.943 111.866c-.562-5.542-5.242-9.866-10.935-9.866h-17.008v-7c0-.553-.447-1-1-1h-22c-.553 0-1 .447-1 1v7h-17.01c-2.018 0-3.901.555-5.527 1.505-3.268 1.905-5.463 5.433-5.463 9.485v30.01c0 .553.448 1 1 1h78c.553 0 1-.447 1-1v-30.01c0-.379-.02-.754-.057-1.124zm-49.943-8.866v-7h20v7c0 .553.447 1 1 1h5.802c-1.169 3.236-7.95 5.5-16.552 5.5s-15.383-2.264-16.552-5.5h5.302c.553 0 1-.447 1-1zm-8.4 1c.957 4.782 8.813 7.5 18.65 7.5s17.693-2.718 18.65-7.5h10.101c4.972 0 8.999 4.025 8.999 8.99v29.01h-12.139c.086-.295.139-.634.139-1v-9c0-1.104-.447-2-1-2s-1 .896-1 2v9c0 .366.053.705.139 1h-48.277c.087-.295.14-.634.14-1v-9c0-1.104-.446-2-1-2-.553 0-1 .896-1 2v9c0 .366.054.705.14 1h-12.142v-29.01c0-3.32 1.812-6.217 4.493-7.773 1.327-.77 2.866-1.217 4.517-1.217h10.59z"/><path fill="#fff" d="M141.833 86.833c-1.563-1.563-2.833-4.625-2.833-6.833v-30h31c14.625 0 15-14 15-14s1 14 16 14v30c0 2.209-1.268 5.268-2.833 6.833l-8.334 8.334c-1.563 1.563-4.625 2.833-6.833 2.833h-26c-2.209 0-5.268-1.268-6.833-2.833l-8.334-8.334zm68.167-21.833c0-9-9-9-9-9v18s9 0 9-9z"/><path fill="#222" d="M168.175 59.6c.269-.359.812-.6 1.825-.6s1.557.241 1.825.6c.132.176.175.347.175.4h2c0-.447-.145-1.026-.575-1.6-.669-.891-1.813-1.4-3.425-1.4s-2.756.509-3.425 1.4c-.43.574-.575 1.153-.575 1.6h2c0-.053.043-.224.175-.4zm8.825 15.4c-.553 0-1 .448-1 1 0 .277-.15.797-.627 1.342-.889 1.013-2.58 1.658-5.373 1.658s-4.484-.645-5.373-1.658c-.477-.545-.627-1.065-.627-1.342 0-.552-.447-1-1-1s-1 .448-1 1c0 .723.286 1.703 1.123 2.658 1.3 1.487 3.545 2.342 6.877 2.342s5.577-.855 6.877-2.342c.837-.955 1.123-1.935 1.123-2.658 0-.552-.447-1-1-1zm28.947-18.77c-1.082-.541-2.23-.885-3.377-1.076l-.57-.082v-5.072c0-.552-.447-1-1-1-6.203 0-10.291-2.435-12.77-6.519-.875-1.438-1.482-2.987-1.869-4.536-.137-.541-.234-1.042-.301-1.49l-.062-.526c-.092-1.283-1.998-1.216-1.998.071l-.025.525c-.035.446-.098.946-.189 1.486-.273 1.543-.771 3.085-1.536 4.516-2.18 4.056-6.062 6.473-12.25 6.473h-31c-.553 0-1 .448-1 1v30c0 2.475 1.374 5.788 3.126 7.54l8.334 8.334c1.753 1.753 5.065 3.126 7.54 3.126h26c2.475 0 5.788-1.374 7.54-3.126l8.334-8.334c1.753-1.753 3.126-5.065 3.126-7.54v-5.072l.57-.082c1.146-.191 2.295-.536 3.377-1.076 3.141-1.571 5.053-4.44 5.053-8.77s-1.912-7.199-5.053-8.77zm-5.947 23.77c0 1.943-1.162 4.748-2.54 6.126l-8.334 8.334c-1.377 1.377-4.183 2.54-6.126 2.54h-26c-1.943 0-4.748-1.162-6.126-2.54l-8.334-8.334c-1.377-1.377-2.54-4.183-2.54-6.126v-29h30c6.938 0 11.492-2.833 14.006-7.528.477-.889.852-1.811 1.151-2.746.368.952.813 1.89 1.362 2.792 2.693 4.437 7.104 7.194 13.479 7.455l.002 29.027zm5.053-8.02c-.887.444-1.848.732-2.811.893l-.242.029v-15.81l.242.035c.963.161 1.924.449 2.811.893 2.484 1.242 3.947 3.435 3.947 6.98s-1.463 5.738-3.947 6.98z"/><path fill="#fff" d="M155 72c6.627 0 12-5.373 12-12s-5.373-12-12-12-12 5.373-12 12 5.373 12 12 12zm30 0c6.627 0 12-5.373 12-12s-5.373-12-12-12-12 5.373-12 12 5.373 12 12 12z"/><path fill="#222" d="M155 58c-1.705 0-2.887.788-3.52 2.053-.363.726-.48 1.43-.48 1.947 0 .552.447 1 1 1s1-.448 1-1c0-.233.07-.654.27-1.053.304-.61.81-.947 1.73-.947s1.426.337 1.73.947c.2.399.27.82.27 1.053 0 .552.447 1 1 1s1-.448 1-1c0-.517-.117-1.221-.48-1.947-.633-1.265-1.815-2.053-3.52-2.053zm0-11c-7.18 0-13 5.82-13 13s5.82 13 13 13 13-5.82 13-13-5.82-13-13-13zm0 24c-6.075 0-11-4.925-11-11s4.925-11 11-11 11 4.925 11 11-4.925 11-11 11zm30-24c-7.18 0-13 5.82-13 13s5.82 13 13 13 13-5.82 13-13-5.82-13-13-13zm0 24c-6.075 0-11-4.925-11-11s4.925-11 11-11 11 4.925 11 11-4.925 11-11 11zm0-13c-1.705 0-2.887.788-3.52 2.053-.363.726-.48 1.43-.48 1.947 0 .552.447 1 1 1s1-.448 1-1c0-.233.07-.654.27-1.053.304-.61.81-.947 1.73-.947s1.426.337 1.73.947c.2.399.27.82.27 1.053 0 .552.447 1 1 1s1-.448 1-1c0-.517-.117-1.221-.48-1.947-.633-1.265-1.815-2.053-3.52-2.053z"/></g><g sketch:type="MSShapeGroup"><path fill="#FD7461" d="M95 15c24.853 0 45 16.863 45 50v27c0 33.137-20.147 50-45 50s-45-16.863-45-50v-27c0-33.137 20.147-50 45-50z"/><path fill="#EF503A" d="M50 61c0-25 20-46 45-46v127c-26 0-45-22-45-46v-35z"/><path fill="#222" d="M51 59.999c0-24.302 19.696-43.999 44-43.999 24.303 0 44 19.695 44 43.999v37.002c0 24.302-19.696 43.999-44 43.999-24.303 0-44-19.695-44-43.999v-37.002zm-2 0v37.002c0 25.408 20.593 45.999 46 45.999 25.409 0 46-20.593 46-45.999v-37.002c0-25.408-20.593-45.999-46-45.999-25.409 0-46 20.593-46 45.999z"/><path fill="#fff" d="M85.891 111h-5.891c-20 0-20 32-20 32h70s0-32-20-32h-6.964l-.036-8h-16v8h-1.109z"/><path fill="#D3D3D8" d="M80 111c0 30 30 30 30 0 20 0 20 32 20 32h-70s0-32 20-32zm8-5h14v2s-2 1-7 1l-7-1v-2z"/><path fill="#222" d="M130.995 142.619l-.035-1.039c-.05-1.112-.14-2.352-.278-3.684-.396-3.812-1.111-7.625-2.227-11.195-3.241-10.37-9.177-16.701-18.455-16.701h-6.012v-7c0-.553-.448-1-1-1h-15.969c-.552 0-1 .447-1 1v7h-6.019c-9.278 0-15.213 6.331-18.455 16.701-1.116 3.57-1.831 7.384-2.228 11.195-.138 1.332-.227 2.567-.277 3.684-.018.391-.029.738-.035 1.039l-.005.381c0 .553.448 1 1 1h70c.553 0 1-.447 1-1l-.005-.381zm-42.976-31.619v-7h13.968v7c0 .553.448 1 1 1h5.982c-.648 27.307-27.291 27.307-27.938 0h5.988c.552 0 1-.447 1-1zm-26.712 27.104c.384-3.688 1.076-7.375 2.147-10.805 2.889-9.244 7.909-14.822 15.58-15.257.708 29.916 31.225 29.916 31.933 0 7.669.435 12.689 6.013 15.578 15.257 1.072 3.43 1.763 7.116 2.147 10.805.135 1.293.221 2.491.269 3.566l.013.33h-10.111c.086-.295.139-.634.139-1v-3c0-1.104-.448-2-1-2s-1 .896-1 2v3c0 .366.053.705.139 1h-44.28c.086-.295.139-.634.139-1v-3c0-1.104-.448-2-1-2s-1 .896-1 2v3c0 .366.053.705.139 1h-10.112l.011-.33c.048-1.075.134-2.274.269-3.566z"/><path fill="#D3D3D8" d="M76 83c2.209 0 4-.896 4-2s-1.791-2-4-2-4 .896-4 2 1.791 2 4 2zm38 0c2.209 0 4-.896 4-2s-1.791-2-4-2-4 .896-4 2 1.791 2 4 2z"/><path fill="#fff" d="M64 58h16c15.166 0 15-14 15-14s1 14 16 14h15v18.01c0 16.563-13.434 29.99-30.001 29.99h-1.998c-16.569 0-30.001-13.436-30.001-29.99v-18.01z"/><path fill="#FD7461" d="M85 84h20s.668 12-10 12l-5.5-1-3.667-5-.833-6z"/><path fill="#fff" d="M55 73c0-9 9-9 9-9v18s-9 0-9-9zm80 0c0-9-9-9-9-9v18s9 0 9-9z"/><circle fill="#222" cx="82" cy="70" r="4"/><path fill="#222" d="M105 83h-20c-.52 0-.953.398-.997.917l-.014.24c-.083 1.835.144 4.045.949 6.194 1.546 4.124 4.81 6.649 10.062 6.649s8.516-2.525 10.062-6.648c.806-2.146 1.032-4.354.949-6.189l-.014-.24c-.044-.525-.477-.923-.997-.923zm-10 12c-4.373 0-6.922-1.975-8.188-5.352-.59-1.576-.811-3.213-.824-4.648h18.023c-.013 1.436-.233 3.073-.824 4.648-1.265 3.377-3.814 5.352-8.187 5.352zm35.947-30.77c-1.082-.541-2.23-.885-3.376-1.076l-.571-.082v-5.072c0-.552-.448-1-1-1h-15c-6.203 0-10.291-2.435-12.77-6.519-.874-1.438-1.482-2.987-1.869-4.536-.135-.541-.233-1.042-.299-1.49l-.064-.526c-.092-1.283-1.998-1.216-1.998.071l-.026.525c-.034.446-.096.946-.192 1.486-.276 1.543-.771 3.085-1.538 4.516-2.173 4.056-6.057 6.473-12.244 6.473h-16c-.552 0-1 .448-1 1v5.072l-.571.082c-1.146.191-2.295.536-3.376 1.076-3.14 1.571-5.053 4.44-5.053 8.77s1.913 7.199 5.053 8.77c1.082.541 2.23.89 3.376 1.076.573.096 1.037.137 1.372.148 3.171 13.748 15.485 24.006 30.2 24.006h1.998c14.716 0 27.03-10.256 30.2-24.006.335-.012.799-.053 1.372-.148 1.146-.188 2.295-.535 3.376-1.076 3.141-1.571 5.053-4.44 5.053-8.77s-1.912-7.199-5.053-8.77zm-70.999 15.75c-2.486-1.242-3.948-3.435-3.948-6.98s1.462-5.738 3.947-6.98c.887-.444 1.848-.732 2.811-.893l.242-.029v15.804l-.241-.028c-.963-.161-1.924-.45-2.811-.894zm36.051 25.02h-1.998c-16.014 0-29.001-12.984-29.001-28.99v-17.01h15c6.938 0 11.492-2.833 14.006-7.528.477-.889.852-1.811 1.151-2.745.37.951.815 1.889 1.363 2.792 2.833 4.666 7.558 7.481 14.48 7.481h14v17.01c0 16.01-12.985 28.99-29.001 28.99zm34.054-25.02c-.887.438-1.848.729-2.811.893l-.242.029v-15.804l.241.029c.963.161 1.924.449 2.811.893 2.485 1.242 3.948 3.435 3.948 6.98s-1.463 5.738-3.947 6.98z"/><circle fill="#222" cx="108" cy="70" r="4"/></g></g><g fill="#E6432C"><path d="M29 120c-3.313 0-6 2.688-6 6s2.687 6 6 6 6-2.688 6-6-2.687-6-6-6zm0 8c-1.104 0-2-.896-2-2s.896-2 2-2 2 .896 2 2-.896 2-2 2zm25-121h-2c0 5-5 5-5 5v2c5 0 5 5 5 5h2c0-5 5-5 5-5v-2c-5 0-5-5-5-5z"/><circle cx="8" cy="44" r="3"/><path d="M254 86h-2c0 5-5 5-5 5v2c5 0 5 5 5 5h2c0-5 5-5 5-5v-2c-5 0-5-5-5-5zm-32-65c-3.312 0-6 2.687-6 6s2.688 6 6 6 6-2.687 6-6-2.688-6-6-6zm0 8c-1.104 0-2-.896-2-2s.896-2 2-2 2 .896 2 2-.896 2-2 2z"/><circle cx="234" cy="126" r="3"/></g></g></svg>