<svg xmlns:dc="http://purl.org/dc/elements/1.1/" xmlns:cc="http://creativecommons.org/ns#" xmlns:rdf="http://www.w3.org/1999/02/22-rdf-syntax-ns#" xmlns:svg="http://www.w3.org/2000/svg" xmlns="http://www.w3.org/2000/svg" xmlns:xlink="http://www.w3.org/1999/xlink" xmlns:sodipodi="http://sodipodi.sourceforge.net/DTD/sodipodi-0.dtd" xmlns:inkscape="http://www.inkscape.org/namespaces/inkscape" viewBox="0 0 58 44" id="svg2" version="1.1" inkscape:version="0.48.4 r9939" width="100%" height="100%"><metadata id="metadata19"><rdf:RDF><cc:Work rdf:about=""><dc:format>image/svg+xml</dc:format><dc:type rdf:resource="http://purl.org/dc/dcmitype/StillImage"/></cc:Work></rdf:RDF></metadata><defs id="defs4"><linearGradient x1="222.89" y1="0" x2="222.89" y2="445.56" id="cozy-gradient" gradientTransform="scale(1.1488099,0.87046605)" gradientUnits="userSpaceOnUse"><stop stop-color="#20A8F1" offset="0%" id="stop7"/><stop stop-color="#62C6ED" offset="100%" id="stop9"/></linearGradient><linearGradient inkscape:collect="always" xlink:href="#cozy-gradient" id="linearGradient3808" gradientUnits="userSpaceOnUse" gradientTransform="scale(1.1488099,0.87046605)" x1="222.89" y1="0" x2="222.89" y2="445.56"/><linearGradient inkscape:collect="always" xlink:href="#cozy-gradient" id="linearGradient3815" gradientUnits="userSpaceOnUse" gradientTransform="scale(1.1488099,0.87046605)" x1="222.89" y1="0" x2="222.89" y2="445.56"/><linearGradient inkscape:collect="always" xlink:href="#cozy-gradient" id="linearGradient3818" gradientUnits="userSpaceOnUse" gradientTransform="matrix(0.06733059,0,0,0.05101714,13.992798,10.634332)" x1="222.89" y1="0" x2="222.89" y2="445.56"/></defs><path inkscape:connector-curvature="0" id="path13" d="m 36.06 33.37 c -5.1 -0.05 -10.22 0.1 -15.32 -0.08 -4.51 -0.56 -7.82 -5.56 -6.47 -9.93 0.83 -3.02 3.59 -5.44 6.73 -5.75 0.4 -4.65 5.56 -8.07 10 -6.69 3.02 0.81 5.44 3.55 5.77 6.67 4.58 0.25 8.2 5.15 7.05 9.6 -0.75 3.52 -4.15 6.26 -7.76 6.19 z" style="fill:#ffffff"/><path inkscape:connector-curvature="0" id="path15" d="m 36.06 33.37 c -5.1 -0.05 -10.22 0.1 -15.32 -0.08 -4.51 -0.56 -7.82 -5.56 -6.47 -9.93 0.83 -3.02 3.59 -5.44 6.73 -5.75 0.4 -4.65 5.56 -8.07 10 -6.69 3.02 0.81 5.44 3.55 5.77 6.67 4.58 0.25 8.2 5.15 7.05 9.6 -0.75 3.52 -4.15 6.26 -7.76 6.19 z m -0.06 -1.66 c 4.02 0.21 7.4 -4.2 6.09 -8.03 -0.76 -2.6 -3.37 -4.56 -6.09 -4.47 -1.66 -1.38 -0.86 -4.26 -3 -5.4 -2.46 -2.19 -6.58 -1.93 -8.78 0.51 -1.79 1.16 -0.7 4.88 -3.12 4.91 -3.39 0.48 -6.11 3.97 -5.32 7.39 0.56 2.9 3.32 5.28 6.33 5.06 4.63 0.07 9.26 -0 13.9 0.02 z m -3.04 -6.72 c -0.47 -1.05 -1.12 -1.51 -1.26 -0.14 -1.39 1.39 -3.94 1.46 -5.49 0.28 -0.73 -0.58 -0.72 -2.07 -1.34 -0.51 -0.61 0.99 0.13 0.76 0.61 0.75 1.91 1.61 5.01 1.55 6.83 -0.17 0.14 0.49 1.16 0.37 0.66 -0.21 z" style="fill:url(#linearGradient3818)"/><path inkscape:connector-curvature="0" id="rect2996" d="m 0 26.5 c 3.33 0 6.67 0 10 0 0 1 0 2 0 3 -3.33 0 -6.67 0 -10 0 0 -1 0 -2 0 -3 z" style="fill:#3fbaf4;fill-opacity:1;stroke:none"/><path inkscape:connector-curvature="0" id="rect2996-7" d="m 0 20.5 c 3.33 0 6.67 0 10 0 0 1 0 2 0 3 -3.33 0 -6.67 0 -10 0 0 -1 0 -2 0 -3 z" style="fill:#3fbaf4;fill-opacity:1;stroke:none"/><path inkscape:connector-curvature="0" id="rect2996-1" d="m 0 14.5 c 3.33 0 6.67 0 10 0 0 1 0 2 0 3 -3.33 0 -6.67 0 -10 0 0 -1 0 -2 0 -3 z" style="fill:#3fbaf4;fill-opacity:1;stroke:none"/></svg>