<svg xmlns:sketch="http://www.bohemiancoding.com/sketch/ns" xmlns="http://www.w3.org/2000/svg" width="260" height="150" viewBox="0 0 260 150"><title>icon-photos</title><desc>Created with Sketch.</desc><g sketch:type="MSLayerGroup"><path sketch:type="MSShapeGroup" fill="#222" d="M118 5.997v128.007c0 3.309 2.69 5.996 6.004 5.996h99.992c3.32 0 6.004-2.682 6.004-5.996v-128.007c0-3.309-2.689-5.997-6.004-5.997h-99.992c-3.321 0-6.004 2.682-6.004 5.997zm-82.003 144.003h128.007c3.309 0 5.996-2.689 5.996-6.004v-99.992c0-3.321-2.682-6.004-5.996-6.004h-128.007c-3.309 0-5.997 2.69-5.997 6.004v99.992c0 3.32 2.682 6.004 5.997 6.004z"/><g sketch:type="MSShapeGroup"><path fill="#fff" d="M124 2h100c2.209 0 4 1.791 4 4v128c0 2.209-1.791 4-4 4h-100c-2.209 0-4-1.791-4-4v-128c0-2.209 1.791-4 4-4zm3 6h94c.553 0 1 .448 1 1v122c0 .553-.447 1-1 1h-94c-.552 0-1-.447-1-1v-122c0-.552.448-1 1-1z"/><path fill="#222" d="M223.996 1h-99.992c-2.769 0-5.004 2.234-5.004 4.997v128.007c0 2.756 2.242 4.996 5.004 4.996h99.992c2.77 0 5.004-2.234 5.004-4.996v-128.007c0-2.757-2.242-4.997-5.004-4.997zm3.004 133.004c0 1.657-1.34 2.996-3.004 2.996h-99.992c-1.657 0-3.004-1.346-3.004-2.996v-128.007c0-1.658 1.339-2.997 3.004-2.997h99.992c1.656 0 3.004 1.345 3.004 2.997v128.007zm-5.997-127.004h-94.006c-1.101 0-1.997.896-1.997 1.998v122.004c0 1.102.895 1.998 1.997 1.998h94.006c1.101 0 1.997-.896 1.997-1.998v-122.004c0-1.102-.895-1.998-1.997-1.998zm-.003 2v122h-94v-122h94z"/><path fill="#FFAE5F" d="M135 61.502c0-24.025 19.477-43.502 43.503-43.502h1.497s32.045 0 42 27.144v73c-4.688 12.059-9 13.854-9 13.854l-78-7v-63.496z"/><path fill="#FE9447" d="M136 63c0-25 19-44 44-44v101c-26 0-44-13-44-36v-21z"/><path fill="#222" d="M222.939 44.799c-3.742-10.2-10.744-17.405-20.035-22.063-5.01-2.512-10.366-4.124-15.723-5.019-1.873-.313-3.615-.515-5.182-.627-.551-.039-1.041-.064-1.465-.079l-.534-.011h-1.497c-24.579 0-44.503 19.924-44.503 44.502v63.498c0 .518.395.949.91.996l78 7c.162.015.324-.012.475-.073.688-.286 1.771-1.096 3.119-2.681 2.157-2.536 4.34-6.36 6.428-11.734.045-.115.068-.238.068-.363v-73c0-.119-.021-.235-.061-.346zm-7.959 84.146c-.682.801-1.297 1.385-1.832 1.785l-.356.246-76.792-6.89v-62.584c0-23.474 19.027-42.502 42.503-42.502h1.497l.471.01c.398.014.863.038 1.389.075 1.504.108 3.186.302 4.994.604 5.17.864 10.34 2.419 15.155 4.834 8.81 4.419 15.425 11.203 18.991 20.811v72.618c-1.991 5.083-4.038 8.666-6.02 10.993z"/><path fill="#fff" d="M165 114h7v-8h16v8h7c10.873 0 15.834 9.457 18 18h-57s-11-18 9-18z"/><path fill="#D3D3D8" d="M165 114c0 8.354 2.326 14.381 5.684 18h18.606c3.371-3.586 5.71-9.623 5.71-18 10.916 0 15.873 9.531 18 18h-57s-11-18 9-18zm8-5h14v2s-2 1-7 1l-7-1v-2z"/><path fill="#222" d="M213.971 131.756c-2.154-8.576-6.136-14.844-12.211-17.438l-.039-.017c-.492-.208-.996-.395-1.515-.554-.271-.083-.554-.141-.829-.209-.271-.066-.536-.148-.814-.204-.371-.071-.76-.116-1.145-.166l-.593-.086c-.595-.055-1.202-.082-1.825-.082h-6v-7c0-.553-.447-1-1-1h-16c-.553 0-1 .447-1 1v7h-6c-9.301 0-13.344 3.831-12.998 10.057.111 2.017.684 4.142 1.564 6.271.344.825.709 1.6 1.078 2.296.222.422.396.729.502.898.182.297.506.479.854.479h57c.359 0 .662-.188.838-.465.141-.224.203-.498.133-.78zm-17.989-16.709l.637.029.486.072c.354.045.711.086 1.055.153.273.056.533.136.801.204l.661.17c5.87 1.838 9.801 7.328 12.063 15.322h-20.281c2.797-3.86 4.423-9.331 4.578-15.95zm-25.451-.047h1.469c.553 0 1-.447 1-1v-7h14v7c0 .553.447 1 1 1h5.967c-.166 6.979-2.031 12.498-5.146 16h-17.666c-3.102-3.536-4.957-9.044-5.12-16h4.496zm-15.116 13.561c-.802-1.938-1.319-3.854-1.417-5.615-.268-4.819 2.57-7.693 10.036-7.922.153 6.611 1.757 12.094 4.549 15.979h-12.001l-.169-.312c-.341-.647-.681-1.363-.998-2.13z"/><path fill="#fff" d="M149 61h16l6-.833 6.5-5.333 2.5-7.834s1 14 16 14h15v18.01c0 16.563-13.434 29.99-30.001 29.99h-1.998c-16.569 0-30.001-13.436-30.001-29.99v-18.01z"/><path fill="#D3D3D8" d="M161 86c2.209 0 4-.896 4-2s-1.791-2-4-2-4 .896-4 2 1.791 2 4 2zm38 0c2.209 0 4-.896 4-2s-1.791-2-4-2-4 .896-4 2 1.791 2 4 2z"/><path fill="#fff" d="M220 76c0-9-9-9-9-9v18s9 0 9-9z"/><path fill="#FFAE5F" d="M170 87h20s1 12-10 12l-8.057-2.988-1.943-9.012z"/><g transform="translate(148 46)" fill="#222"><path d="M67.947 21.23c-1.082-.541-2.23-.885-3.377-1.076l-.57-.082v-5.072c0-.552-.447-1-1-1h-15c-6.203 0-10.291-2.435-12.77-6.519-.875-1.438-1.482-2.987-1.869-4.536-.137-.541-.234-1.042-.301-1.49l-.062-.526c-.092-1.283-1.998-1.216-1.998.071l-.025.525c-.035.446-.098.946-.191 1.486-.275 1.543-.771 3.085-1.537 4.516-2.177 4.056-6.059 6.473-12.247 6.473h-16c-.553 0-1 .448-1 1v18.01c0 17.111 13.883 30.99 31.001 30.99h1.998c14.716 0 27.03-10.256 30.2-24.006.335-.012.799-.053 1.371-.148 1.146-.189 2.295-.535 3.377-1.076 3.141-1.571 5.053-4.44 5.053-8.77s-1.912-7.199-5.053-8.77zm-34.948 40.77h-1.998c-16.015 0-29.001-12.984-29.001-28.99v-17.01h15c6.938 0 11.492-2.833 14.006-7.528.477-.889.852-1.811 1.151-2.746.368.952.813 1.89 1.362 2.792 2.835 4.667 7.559 7.482 14.481 7.482h14v17.01c0 16.01-12.984 28.99-29.001 28.99zm34.054-25.02c-.887.441-1.848.73-2.811.893l-.242.029v-15.804l.242.029c.963.161 1.924.449 2.811.893 2.484 1.242 3.947 3.435 3.947 6.98s-1.463 5.738-3.947 6.98zm-25.053 3.02h-20c-.52 0-.953.398-.996.917l-.016.24c-.082 1.835.145 4.045.949 6.194 1.547 4.124 4.811 6.649 10.063 6.649s8.516-2.525 10.062-6.648c.806-2.147 1.03-4.357.948-6.192l-.016-.24c-.041-.522-.474-.92-.994-.92zm-10 12c-4.373 0-6.922-1.975-8.188-5.352-.591-1.575-.812-3.212-.824-4.648h18.022c-.013 1.436-.231 3.073-.821 4.648-1.267 3.377-3.816 5.352-8.189 5.352z"/><circle cx="19" cy="27" r="4"/><circle cx="45" cy="27" r="4"/></g></g><path sketch:type="MSShapeGroup" opacity=".1" enable-background="new" d="M119 37h46l6 6v96h-52v-102z"/><g sketch:type="MSShapeGroup"><path fill="#fff" d="M32 144v-100c0-2.209 1.791-4 4-4h128c2.209 0 4 1.791 4 4v100c0 2.209-1.791 4-4 4h-128c-2.209 0-4-1.791-4-4zm7-98h122c.553 0 1 .448 1 1v94c0 .553-.447 1-1 1h-122c-.552 0-1-.447-1-1v-94c0-.552.448-1 1-1z"/><path fill="#FFAE5F" d="M38 100c1.764 1.289 3.799 2 6 2 5.523 0 10-4.477 10-10s-4.477-10-10-10c-2.267 0-4.357.754-6 2v16z"/><path fill="#0F0F0F" d="M164.004 39h-128.007c-2.757 0-4.997 2.242-4.997 5.004v99.992c0 2.77 2.234 5.004 4.997 5.004h128.007c2.756 0 4.996-2.242 4.996-5.004v-99.992c0-2.769-2.234-5.004-4.996-5.004zm2.996 104.996c0 1.656-1.346 3.004-2.996 3.004h-128.007c-1.658 0-2.997-1.34-2.997-3.004v-99.992c0-1.657 1.345-3.004 2.997-3.004h128.007c1.657 0 2.996 1.339 2.996 3.004v99.992zm-5.998-98.996h-122.004c-1.102 0-1.998.895-1.998 1.997v94.006c0 1.101.896 1.997 1.998 1.997h122.004c1.102 0 1.998-.895 1.998-1.997v-94.006c0-1.101-.896-1.997-1.998-1.997zm-5.005 80h5.003v16h-122v-23h4v12h2v-12h116v5h-5.003c-.544 0-.997.447-.997 1 0 .557.445 1 .997 1zm-116.997-30.561v-9.918c1.448-.976 3.182-1.521 5-1.521 4.971 0 9 4.029 9 9s-4.029 9-9 9c-1.788 0-3.477-.527-5-1.53v-5.031zm0-12.238v-35.201h122v69h-116v-13.051c5.606-.506 10-5.213 10-10.949 0-6.075-4.925-11-11-11-1.77 0-3.479.424-5 1.201zm4 20.75v13.049h-4v-14.23c1.258.644 2.599 1.054 4 1.181zm21.004 30.049h-8.009c-.539 0-.995.447-.995 1 0 .557.446 1 .996 1h8.009c.539 0 .995-.447.995-1 0-.557-.446-1-.996-1zm-10.995-11h-4.019c-.539 0-.99.447-.99 1 0 .557.443 1 .991 1h4.019c.539 0 .99-.447.99-1 0-.557-.443-1-.991-1zm16.982 11h-1.981c-.567 0-1.01.447-1.01 1 0 .557.452 1 1.009 1h1.981c.567 0 1.01-.447 1.01-1 0-.557-.452-1-1.009-1zm40.01 4h-11.002c-.552 0-.999.447-.999 1 0 .557.447 1 .999 1h11.003c.551 0 .998-.447.998-1 0-.557-.447-1-.999-1zm42.003-2h-8.008c-.541 0-.996.447-.996 1 0 .557.445 1 .996 1h8.008c.541 0 .996-.447.996-1 0-.557-.445-1-.996-1zm-38.995-2h-4.019c-.539 0-.99.447-.99 1 0 .557.443 1 .991 1h4.019c.539 0 .99-.447.99-1 0-.557-.443-1-.991-1zm-58.009-66h26c2.757 0 5-2.243 5-5s-2.243-5-5-5h-.055c-.499-4.494-4.32-8-8.945-8-2.739 0-5.298 1.235-7 3.342-.64-.225-1.318-.342-2-.342-2.968 0-5.439 2.166-5.917 5h-2.083c-2.757 0-5 2.243-5 5s2.243 5 5 5zm0-8h4v-1c0-2.206 1.794-4 4-4 .66 0 1.288.155 1.866.46l.799.423.501-.753c1.303-1.96 3.484-3.13 5.834-3.13 3.86 0 7 3.14 7 7v1h2c1.654 0 3 1.346 3 3s-1.346 3-3 3h-26c-1.654 0-3-1.346-3-3s1.346-3 3-3zm17-4c1.657 0 3 1.343 3 3 0 .552.448 1 1 1s1-.448 1-1c0-2.761-2.239-5-5-5-.552 0-1 .448-1 1s.448 1 1 1z"/><path fill="#FFAE5F" d="M66.75 69h73.5l9.75 30h-93l9.75-30z"/><path fill="#FE9447" d="M85 98l28-28h-22l-10.071 28.07 4.071-.07z"/><path fill="#222" d="M140.25 69l9.75 30h-93l9.75-30h73.5zm-1.441 2l-70.616.03-8.444 25.97h87.534l-8.474-26z"/><path fill="#E9E9EB" d="M60.98 98h32.02v31h-32.02v-31z"/><path fill="#D3D3D8" d="M61 98v4h15l3 3v24h6v-31h-24z"/><path fill="#222" d="M60 97h33v33h-33v-33zm2 2v29h29v-29h-29z"/><path fill="#fff" d="M116 66l35.5 35.5-2.5 2.047v25.453h-64.985l.005-25.453-2.52-2.047 34.5-35.5z"/><path fill="#222" d="M116 65l36.5 36.5-2.5 2.047v26.453h-66.985l.005-26.453-2.52-2.047 35.5-36.5zm-.041 2.872l-32.473 33.55.795.572.739.6v.953l-.005 24.453h62.985v-25.4l.732-.601.901-.739-33.674-33.388z"/><path fill="#FFAE5F" d="M69 105h8v16h-8v-16zm51 0h18v16h-18v-16zm-4-13c2.209 0 4-1.791 4-4s-1.791-4-4-4-4 1.791-4 4 1.791 4 4 4z"/><path fill="#222" d="M107 107.091s-.083-5.091-6-5.091h-.104c-5.583 0-5.896 5.091-5.896 5.091v16.909h-6v6h24v-6h-6v-16.909zm0 18.909h4v2h-20v-2h16zm-10-2v-16.909c0-.036.013-.188.056-.409.076-.389.213-.772.417-1.121.576-.978 1.607-1.561 3.527-1.561s2.951.583 3.527 1.561c.204.349.341.732.417 1.121.043.221.056.373.056.409v16.909h-8zm1-9h2v2h-2v-2zm23-27c0-2.762-2.239-5-5-5s-5 2.238-5 5 2.239 5 5 5 5-2.238 5-5zm-5 3c-1.657 0-3-1.344-3-3s1.343-3 3-3 3 1.344 3 3-1.343 3-3 3zm-48 31h10v-18h-10v18zm2-16h6v14h-6v-14zm49-2v18h20v-18h-20zm9 16h-7v-14h7v14zm9 0h-7v-14h7v14z"/></g><g transform="translate(0 4)" sketch:type="MSShapeGroup" fill="#F2802C"><path d="M50 7v-2s5 0 5-5h2s0 5 5 5v2s-5 0-5 5h-2s0-5-5-5zm-41 115c3.313 0 6-2.688 6-6s-2.687-6-6-6-6 2.688-6 6 2.687 6 6 6zm0-4c-1.104 0-2-.896-2-2s.896-2 2-2 2 .896 2 2-.896 2-2 2z"/><circle cx="3" cy="41" r="3"/><path d="M248 83v-2s5 0 5-5h2s0 5 5 5v2s-5 0-5 5h-2s0-5-5-5zm-3-49c3.312 0 6-2.687 6-6s-2.688-6-6-6-6 2.687-6 6 2.688 6 6 6zm0-4c-1.104 0-2-.896-2-2s.896-2 2-2 2 .896 2 2-.896 2-2 2z"/><circle cx="234" cy="142" r="3"/></g></g></svg>