<svg width="1024" height="1024" xmlns="http://www.w3.org/2000/svg">
 <title>cozy-lg</title>

 <g>
  <title>background</title>
  <rect fill="#ffffff" id="canvas_background" height="1026" width="1026" y="-1" x="-1"/>
 </g>
 <g>
  <title>Layer 1</title>
  <path stroke-width="0" id="svg_1" fill-rule="evenodd" fill="#3AB4F0" d="m730.745178,868.502136l-437.490204,0c-135.819885,0 -246.257904,-111.30365 -246.257904,-248.130188c0,-65.230225 24.92923,-126.84256 70.228516,-173.497894c39.693146,-40.816956 91.088989,-66.211334 146.708527,-72.824585c6.561584,-56.033051 31.749054,-107.829346 72.2948,-147.806702c46.293854,-45.660767 107.441437,-70.744904 172.206085,-70.744904c64.751648,0 125.938354,25.084137 172.206543,70.7323c40.377441,39.783417 65.487244,91.321106 72.230225,147.056915c125.447205,11.35376 224.131165,117.839722 224.131165,247.136078c0,136.77533 -110.516052,248.078979 -246.270386,248.078979l0.012634,0zm0.8396,-46.499878l1.885803,0c108.655518,0 197.032471,-89.565063 197.032471,-199.641235c0,-110.050964 -88.376953,-199.602539 -197.032471,-199.602539l-1.97644,0c-14.182129,0 -25.807495,-11.418488 -26.130676,-25.833527c-2.45343,-107.506104 -90.804382,-194.914093 -196.954407,-194.914093c-106.175385,0 -194.526215,87.446625 -196.980438,194.952698c-0.309845,14.14389 -11.560455,25.536346 -25.536346,25.859161c-106.084961,2.480225 -192.394791,91.993561 -192.394791,199.564301c0,110.076172 88.376175,199.627869 197.032059,199.627869l1.601624,0l0.619934,-0.038696c0.568451,0 1.136902,0 1.679291,0.038696l437.154388,0l0,-0.012634zm-96.87561,-216.47229c-15.500183,-10.203918 -16.275269,-28.933411 -16.313782,-29.759644c-0.129333,-5.089722 -4.262817,-9.106506 -9.300598,-9.04187c-5.062866,0.129333 -9.079712,4.327393 -8.989746,9.377747c0.051941,0.671753 0.309753,9.46759 4.481934,19.840271c-55.283264,52.725769 -142.187134,52.80304 -197.587097,0.322449c4.26236,-10.527222 4.559479,-19.465759 4.559479,-20.150146c0.090271,-5.037659 -3.913818,-9.222351 -8.938141,-9.351685c-4.947479,-0.167908 -9.171173,3.913513 -9.339111,8.963806c0,0.749817 -0.749023,19.569092 -16.313904,29.773804c-4.26236,2.7901 -5.424805,8.498718 -2.660736,12.748901c1.743896,2.711975 4.650238,4.184692 7.659821,4.184692c1.73056,0 3.461365,-0.477722 4.998749,-1.485352c4.004089,-2.622131 7.362671,-5.618713 10.165314,-8.783264c30.767975,27.87384 69.647034,41.824158 108.539673,41.824158c38.96936,0 77.952148,-14.001587 108.784851,-42.030701c2.802612,3.203186 6.199707,6.277039 10.30719,8.97644c1.524658,1.007568 3.268555,1.498718 4.986511,1.498718c2.970581,0 5.902466,-1.485352 7.658997,-4.184692c2.764038,-4.262756 1.549988,-9.99823 -2.660767,-12.762268l0,0.026001l-0.038635,0.012634z"/>
 </g>
</svg>