<svg width="2208" height="3925" xmlns="http://www.w3.org/2000/svg" style="vector-effect: non-scaling-stroke;">

 <g>
  <title>background</title>
  <rect fill="#33a6ff" id="canvas_background" height="3927" width="2210" y="-1" x="-1"/>
 </g>
 <g>
  <title>Layer 1</title>
  <path id="svg_1" fill="#fff" d="m1363.678101,2384.025879l-519.346436,0c-161.225464,0 -292.331177,-131.598877 -292.331177,-293.375244c0,-77.140625 29.59729,-150.014893 83.372681,-205.155273c47.110962,-48.255371 108.133057,-78.294434 174.152832,-86.112305c7.798462,-66.251465 37.696777,-127.503906 85.820557,-174.765381c54.950928,-53.985107 127.543579,-83.65332 204.422729,-83.65332c76.859009,0 149.472412,29.657227 204.422852,83.633545c47.923096,47.060547 77.742065,107.982666 85.741089,173.881104c148.920776,13.388428 266.066284,139.32666 266.066284,292.201172c0,161.746826 -131.186768,293.355469 -292.351807,293.355469l0.019409,0l0.010986,-0.009766zm0.982788,-55l2.238159,0c128.979248,0 233.899902,-105.88501 233.899902,-236.037354c0,-130.13208 -104.920654,-236.005859 -233.899902,-236.005859l-2.348511,0c-16.840942,0 -30.631226,-13.519775 -31.012451,-30.561768c-2.910767,-127.112061 -107.781372,-230.466797 -233.80896,-230.466797c-126.02771,0 -230.948608,103.405029 -233.828857,230.51709c-0.381226,16.721191 -13.730347,30.199951 -30.319946,30.581055c-125.937378,2.930664 -228.399048,108.765381 -228.399048,235.966553c0,130.153076 104.920654,236.036377 233.89856,236.036377l1.896851,0l0.74353,-0.03833l2.016479,0.03833l518.864258,0l0.070923,-0.019287l-0.010986,-0.01001zm-114.986694,-255.938965c-18.437378,-12.064209 -19.35144,-34.224609 -19.390503,-35.198486c-0.131104,-6.021729 -5.03894,-10.759521 -11.039917,-10.668457c-6.011841,0.109863 -10.779785,5.089111 -10.6698,11.070068c0.040527,0.792969 0.351685,11.200439 5.300049,23.465332c-65.638794,62.336182 -168.783081,62.426758 -234.551514,0.371338c5.078003,-12.444824 5.408936,-23.022949 5.408936,-23.816895c0.110229,-5.981201 -4.636108,-10.908691 -10.597656,-11.069336c-5.901489,-0.181641 -10.910034,4.646973 -11.110962,10.628418c0,0.883057 -0.883423,23.133301 -19.37085,35.197266c-5.03772,3.32251 -6.453003,10.07666 -3.160645,15.095215c2.077759,3.19165 5.520386,4.937256 9.102783,4.937256c2.027344,0 4.084595,-0.570801 5.921265,-1.765381c4.747192,-3.102051 8.721436,-6.644043 12.063843,-10.407715c36.533081,32.978516 82.690552,49.469238 128.848267,49.469238c46.2677,0 92.5354,-16.560547 129.139404,-49.700684c3.351929,3.803955 7.376587,7.436523 12.254028,10.62793c1.805786,1.19458 3.883789,1.766846 5.921021,1.766846c3.533203,0 7.005249,-1.766846 9.102783,-4.958252c3.272583,-5.047607 1.857422,-11.822754 -3.160767,-15.09375l0,0.039063l-0.009766,0.010986z"/>
 </g>
</svg>