<svg width="240" height="264" viewBox="0 0 240 264" xmlns="http://www.w3.org/2000/svg" xmlns:sketch="http://www.bohemiancoding.com/sketch/ns"><title>splashscreen</title><desc>Created with Sketch.</desc><defs><filter x="-50%" y="-50%" width="200%" height="200%" filterUnits="objectBoundingBox" id="a"><feOffset dy="10" in="SourceAlpha" result="shadowOffsetOuter1"/><feGaussianBlur stdDeviation="10" in="shadowOffsetOuter1" result="shadowBlurOuter1"/><feColorMatrix values="0 0 0 0 0.121568627 0 0 0 0 0.411764706 0 0 0 0 0.635294118 0 0 0 0.182 0" in="shadowBlurOuter1" result="shadowMatrixOuter1"/><feOffset dy="6" in="SourceAlpha" result="shadowOffsetOuter2"/><feGaussianBlur stdDeviation="3" in="shadowOffsetOuter2" result="shadowBlurOuter2"/><feColorMatrix values="0 0 0 0 0.125490196 0 0 0 0 0.352941176 0 0 0 0 0.635294118 0 0 0 0.168 0" in="shadowBlurOuter2" result="shadowMatrixOuter2"/><feMerge><feMergeNode in="shadowMatrixOuter1"/><feMergeNode in="shadowMatrixOuter2"/><feMergeNode in="SourceGraphic"/></feMerge></filter></defs><g sketch:type="MSArtboardGroup" fill="none"><path d="M145.873 128.333h-51.746c-16.064 0-29.127-13.164-29.127-29.347 0-7.717 2.949-15.007 8.307-20.523 4.694-4.827 10.774-7.832 17.352-8.614.777-6.628 3.756-12.755 8.551-17.482 5.475-5.401 12.708-8.368 20.368-8.368 7.658 0 14.893 2.967 20.368 8.366 4.775 4.708 7.746 10.802 8.543 17.394 14.838 1.34 26.51 13.937 26.51 29.229 0 16.18-13.071 29.345-29.129 29.345h.002zm.099-5.502h.223c12.851 0 23.305-10.591 23.305-23.611 0-13.017-10.454-23.609-23.305-23.609h-.234c-1.678 0-3.052-1.353-3.09-3.057-.29-12.715-10.739-23.054-23.296-23.054-12.557 0-23.011 10.343-23.298 23.059-.038 1.673-1.368 3.021-3.021 3.059-12.548.293-22.757 10.88-22.757 23.604 0 13.02 10.454 23.611 23.305 23.611h.189l.074-.005.201.005h51.698l.007-.002zm-11.457-25.603c-1.837-1.207-1.928-3.423-1.932-3.521-.013-.602-.502-1.076-1.1-1.067-.599.011-1.074.509-1.063 1.107.004.08.035 1.12.528 2.347-6.54 6.236-16.817 6.244-23.37.038.506-1.244.539-2.303.539-2.383.011-.598-.462-1.092-1.056-1.107-.588-.018-1.087.465-1.107 1.063 0 .089-.088 2.314-1.93 3.521-.502.332-.643 1.008-.315 1.51.207.319.55.494.907.494.202 0 .407-.058.59-.177.473-.31.869-.664 1.202-1.041 3.64 3.299 8.239 4.949 12.838 4.949 4.61 0 9.22-1.656 12.867-4.971.334.381.735.744 1.221 1.063.18.12.387.177.59.177.352 0 .698-.177.907-.496.326-.505.185-1.182-.315-1.51v.004z" fill="#fff" filter="url(#a)" sketch:type="MSShapeGroup"/><path d="M48.748 179.44h4.32c.88 0 1.668.076 2.364.228.696.152 1.288.404 1.776.756s.86.808 1.116 1.368c.256.56.384 1.248.384 2.064 0 1.552-.496 2.708-1.488 3.468-.992.76-2.376 1.14-4.152 1.14h-3.216v6.792h-1.104v-15.816zm4.056 8.088c1.616 0 2.816-.288 3.6-.864.784-.576 1.176-1.512 1.176-2.808 0-.672-.1-1.228-.3-1.668-.2-.44-.496-.796-.888-1.068s-.888-.464-1.488-.576c-.6-.112-1.3-.168-2.1-.168h-2.952v7.152h2.952zm7.68 1.992c0-.944.14-1.792.42-2.544.28-.752.656-1.388 1.128-1.908.472-.52 1.008-.92 1.608-1.2.6-.28 1.22-.42 1.86-.42 1.376 0 2.456.464 3.24 1.392.784.928 1.176 2.24 1.176 3.936v.432c0 .144-.016.288-.048.432h-8.304c.016.72.128 1.388.336 2.004.208.616.5 1.144.876 1.584.376.44.828.784 1.356 1.032.528.248 1.12.372 1.776.372.624 0 1.188-.092 1.692-.276.504-.184.972-.436 1.404-.756l.432.816c-.464.272-.972.528-1.524.768s-1.252.36-2.1.36c-.736 0-1.428-.136-2.076-.408-.648-.272-1.212-.668-1.692-1.188-.48-.52-.86-1.152-1.14-1.896-.28-.744-.42-1.588-.42-2.532zm8.424-.696c0-1.488-.304-2.604-.912-3.348-.608-.744-1.432-1.116-2.472-1.116-.496 0-.968.104-1.416.312-.448.208-.852.504-1.212.888s-.656.852-.888 1.404c-.232.552-.38 1.172-.444 1.86h7.344zm4.128-5.088h.912l.096 2.136h.072c.384-.72.852-1.304 1.404-1.752.552-.448 1.172-.672 1.86-.672.224 0 .424.016.6.048s.36.096.552.192l-.24.96c-.192-.08-.36-.132-.504-.156-.144-.024-.328-.036-.552-.036-.512 0-1.052.22-1.62.66-.568.44-1.076 1.204-1.524 2.292v7.848h-1.056v-11.52zm6.552 9.432c.496.416 1.024.764 1.584 1.044s1.256.42 2.088.42c.912 0 1.596-.228 2.052-.684.456-.456.684-.988.684-1.596 0-.352-.084-.664-.252-.936-.168-.272-.388-.504-.66-.696-.272-.192-.572-.36-.9-.504-.328-.144-.66-.28-.996-.408-.432-.16-.868-.328-1.308-.504-.44-.176-.836-.388-1.188-.636s-.636-.544-.852-.888c-.216-.344-.324-.764-.324-1.26 0-.416.08-.812.24-1.188.16-.376.4-.704.72-.984.32-.28.708-.5 1.164-.66.456-.16.988-.24 1.596-.24.608 0 1.204.112 1.788.336.584.224 1.084.512 1.5.864l-.576.744c-.384-.288-.792-.532-1.224-.732-.432-.2-.944-.3-1.536-.3-.448 0-.832.06-1.152.18-.32.12-.588.276-.804.468-.216.192-.376.416-.48.672-.104.256-.156.512-.156.768 0 .336.076.62.228.852.152.232.356.436.612.612s.548.332.876.468c.328.136.66.268.996.396l1.344.528c.448.176.852.392 1.212.648s.652.572.876.948c.224.376.336.844.336 1.404 0 .432-.084.844-.252 1.236-.168.392-.42.736-.756 1.032-.336.296-.744.532-1.224.708-.48.176-1.032.264-1.656.264-.864 0-1.656-.156-2.376-.468-.72-.312-1.336-.684-1.848-1.116l.624-.792zm9.576-3.648c0-.96.14-1.82.42-2.58.28-.76.656-1.396 1.128-1.908.472-.512 1.02-.904 1.644-1.176.624-.272 1.28-.408 1.968-.408s1.348.136 1.98.408c.632.272 1.184.664 1.656 1.176.472.512.848 1.148 1.128 1.908.28.76.42 1.62.42 2.58s-.14 1.812-.42 2.556c-.28.744-.656 1.372-1.128 1.884-.472.512-1.024.904-1.656 1.176-.632.272-1.292.408-1.98.408s-1.344-.136-1.968-.408c-.624-.272-1.172-.664-1.644-1.176-.472-.512-.848-1.14-1.128-1.884-.28-.744-.42-1.596-.42-2.556zm1.104 0c0 .752.104 1.44.312 2.064.208.624.492 1.16.852 1.608.36.448.788.796 1.284 1.044s1.032.372 1.608.372c.576 0 1.116-.124 1.62-.372s.936-.596 1.296-1.044c.36-.448.644-.984.852-1.608.208-.624.312-1.312.312-2.064 0-.768-.104-1.464-.312-2.088-.208-.624-.492-1.164-.852-1.62-.36-.456-.792-.808-1.296-1.056s-1.044-.372-1.62-.372c-.576 0-1.112.124-1.608.372s-.924.6-1.284 1.056c-.36.456-.644.996-.852 1.62-.208.624-.312 1.32-.312 2.088zm12.696-5.784h.912l.096 1.776h.072c.592-.592 1.2-1.084 1.824-1.476.624-.392 1.336-.588 2.136-.588 1.2 0 2.08.36 2.64 1.08.56.72.84 1.832.84 3.336v7.392h-1.056v-7.248c0-1.232-.204-2.14-.612-2.724-.408-.584-1.084-.876-2.028-.876-.688 0-1.312.18-1.872.54-.56.36-1.192.9-1.896 1.62v8.688h-1.056v-11.52zm12.12 8.64c0-1.264.6-2.232 1.8-2.904 1.2-.672 3.08-1.152 5.64-1.44.016-.432-.012-.868-.084-1.308-.072-.44-.208-.832-.408-1.176-.2-.344-.48-.624-.84-.84-.36-.216-.82-.324-1.38-.324-.784 0-1.496.152-2.136.456-.64.304-1.152.6-1.536.888l-.48-.792c.208-.144.46-.304.756-.48s.624-.336.984-.48c.36-.144.756-.268 1.188-.372.432-.104.88-.156 1.344-.156.688 0 1.264.116 1.728.348.464.232.84.548 1.128.948.288.4.492.868.612 1.404.12.536.18 1.116.18 1.74v7.368h-.888l-.12-1.488h-.048c-.592.464-1.228.876-1.908 1.236-.68.36-1.404.54-2.172.54-.464 0-.896-.064-1.296-.192s-.756-.32-1.068-.576c-.312-.256-.556-.584-.732-.984-.176-.4-.264-.872-.264-1.416zm1.104-.048c0 .832.24 1.424.72 1.776.48.352 1.048.528 1.704.528.672 0 1.312-.16 1.92-.48.608-.32 1.272-.784 1.992-1.392v-3.912c-1.184.144-2.18.32-2.988.528-.808.208-1.46.456-1.956.744s-.852.616-1.068.984c-.216.368-.324.776-.324 1.224zm11.52-14.328h1.056v15.864c0 .256.048.444.144.564.096.12.216.18.36.18h.156l.276-.048.192.864-.336.084c-.112.024-.256.036-.432.036-.944 0-1.416-.608-1.416-1.824v-15.72zm9.576 9.312c0-1.248.164-2.376.492-3.384.328-1.008.788-1.868 1.38-2.58.592-.712 1.304-1.256 2.136-1.632.832-.376 1.752-.564 2.76-.564.912 0 1.72.192 2.424.576.704.384 1.264.824 1.68 1.32l-.672.72c-.416-.48-.912-.868-1.488-1.164-.576-.296-1.224-.444-1.944-.444-.864 0-1.644.168-2.34.504-.696.336-1.288.812-1.776 1.428-.488.616-.86 1.364-1.116 2.244-.256.88-.384 1.872-.384 2.976 0 1.104.128 2.1.384 2.988.256.888.624 1.644 1.104 2.268.48.624 1.06 1.108 1.74 1.452.68.344 1.444.516 2.292.516.816 0 1.54-.16 2.172-.48.632-.32 1.236-.808 1.812-1.464l.672.696c-.608.704-1.288 1.256-2.04 1.656-.752.4-1.64.6-2.664.6-.976 0-1.872-.192-2.688-.576-.816-.384-1.516-.932-2.1-1.644-.584-.712-1.036-1.576-1.356-2.592-.32-1.016-.48-2.156-.48-3.42zm14.424-9.312h1.056v15.864c0 .256.048.444.144.564.096.12.216.18.36.18h.156l.276-.048.192.864-.336.084c-.112.024-.256.036-.432.036-.944 0-1.416-.608-1.416-1.824v-15.72zm4.728 11.52c0-.96.14-1.82.42-2.58.28-.76.656-1.396 1.128-1.908.472-.512 1.02-.904 1.644-1.176.624-.272 1.28-.408 1.968-.408s1.348.136 1.98.408c.632.272 1.184.664 1.656 1.176.472.512.848 1.148 1.128 1.908.28.76.42 1.62.42 2.58s-.14 1.812-.42 2.556c-.28.744-.656 1.372-1.128 1.884-.472.512-1.024.904-1.656 1.176-.632.272-1.292.408-1.98.408s-1.344-.136-1.968-.408c-.624-.272-1.172-.664-1.644-1.176-.472-.512-.848-1.14-1.128-1.884-.28-.744-.42-1.596-.42-2.556zm1.104 0c0 .752.104 1.44.312 2.064.208.624.492 1.16.852 1.608.36.448.788.796 1.284 1.044s1.032.372 1.608.372c.576 0 1.116-.124 1.62-.372s.936-.596 1.296-1.044c.36-.448.644-.984.852-1.608.208-.624.312-1.312.312-2.064 0-.768-.104-1.464-.312-2.088-.208-.624-.492-1.164-.852-1.62-.36-.456-.792-.808-1.296-1.056s-1.044-.372-1.62-.372c-.576 0-1.112.124-1.608.372s-.924.6-1.284 1.056c-.36.456-.644.996-.852 1.62-.208.624-.312 1.32-.312 2.088zm12.528-5.784h1.056v7.248c0 1.232.204 2.14.612 2.724.408.584 1.076.876 2.004.876.688 0 1.312-.188 1.872-.564.56-.376 1.176-.972 1.848-1.788v-8.496h1.056v11.52h-.888l-.12-1.92h-.048c-.56.672-1.152 1.208-1.776 1.608-.624.4-1.336.6-2.136.6-1.2 0-2.08-.36-2.64-1.08-.56-.72-.84-1.832-.84-3.336v-7.392zm11.904 5.784c0-.928.136-1.768.408-2.52.272-.752.644-1.392 1.116-1.92.472-.528 1.016-.932 1.632-1.212.616-.28 1.268-.42 1.956-.42.704 0 1.316.124 1.836.372s1.068.596 1.644 1.044l-.048-2.112v-4.752h1.056v17.256h-.912l-.096-1.488h-.072c-.464.464-1.012.876-1.644 1.236-.632.36-1.332.54-2.1.54-1.456 0-2.616-.516-3.48-1.548-.864-1.032-1.296-2.524-1.296-4.476zm1.128 0c0 .768.084 1.464.252 2.088.168.624.412 1.156.732 1.596.32.44.716.784 1.188 1.032s1.012.372 1.62.372c.64 0 1.252-.164 1.836-.492.584-.328 1.18-.796 1.788-1.404v-6.84c-.608-.544-1.18-.928-1.716-1.152-.536-.224-1.084-.336-1.644-.336-.576 0-1.112.132-1.608.396s-.924.624-1.284 1.08c-.36.456-.644 1-.852 1.632-.208.632-.312 1.308-.312 2.028zm-178.572 40.816c.128.048.272.092.432.132.16.04.328.06.504.06.72 0 1.32-.288 1.8-.864.48-.576.864-1.304 1.152-2.184l.312-1.008-4.728-11.736h1.152l2.784 7.248.588 1.584c.216.576.436 1.12.66 1.632h.096c.176-.512.356-1.056.54-1.632.184-.576.356-1.104.516-1.584l2.472-7.248h1.08l-4.56 12.96c-.16.48-.356.948-.588 1.404-.232.456-.504.864-.816 1.224-.312.36-.672.648-1.08.864-.408.216-.868.324-1.38.324-.432 0-.824-.08-1.176-.24l.24-.936zm10.896-9.816c0-.96.14-1.82.42-2.58.28-.76.656-1.396 1.128-1.908.472-.512 1.02-.904 1.644-1.176.624-.272 1.28-.408 1.968-.408s1.348.136 1.98.408c.632.272 1.184.664 1.656 1.176.472.512.848 1.148 1.128 1.908.28.76.42 1.62.42 2.58s-.14 1.812-.42 2.556c-.28.744-.656 1.372-1.128 1.884-.472.512-1.024.904-1.656 1.176-.632.272-1.292.408-1.98.408s-1.344-.136-1.968-.408c-.624-.272-1.172-.664-1.644-1.176-.472-.512-.848-1.14-1.128-1.884-.28-.744-.42-1.596-.42-2.556zm1.104 0c0 .752.104 1.44.312 2.064.208.624.492 1.16.852 1.608.36.448.788.796 1.284 1.044s1.032.372 1.608.372c.576 0 1.116-.124 1.62-.372s.936-.596 1.296-1.044c.36-.448.644-.984.852-1.608.208-.624.312-1.312.312-2.064 0-.768-.104-1.464-.312-2.088-.208-.624-.492-1.164-.852-1.62-.36-.456-.792-.808-1.296-1.056s-1.044-.372-1.62-.372c-.576 0-1.112.124-1.608.372s-.924.6-1.284 1.056c-.36.456-.644.996-.852 1.62-.208.624-.312 1.32-.312 2.088zm12.528-5.784h1.056v7.248c0 1.232.204 2.14.612 2.724.408.584 1.076.876 2.004.876.688 0 1.312-.188 1.872-.564.56-.376 1.176-.972 1.848-1.788v-8.496h1.056v11.52h-.888l-.12-1.92h-.048c-.56.672-1.152 1.208-1.776 1.608-.624.4-1.336.6-2.136.6-1.2 0-2.08-.36-2.64-1.08-.56-.72-.84-1.832-.84-3.336v-7.392zm16.68 5.784c0-.96.144-1.82.432-2.58.288-.76.672-1.396 1.152-1.908.48-.512 1.036-.904 1.668-1.176.632-.272 1.3-.408 2.004-.408.8 0 1.468.144 2.004.432.536.288.996.616 1.38.984l-.624.744c-.368-.352-.776-.644-1.224-.876-.448-.232-.952-.348-1.512-.348-.592 0-1.14.124-1.644.372s-.944.6-1.32 1.056c-.376.456-.672.996-.888 1.62-.216.624-.324 1.32-.324 2.088 0 .752.1 1.44.3 2.064.2.624.48 1.16.84 1.608.36.448.8.796 1.32 1.044s1.092.372 1.716.372c.608 0 1.172-.128 1.692-.384s.98-.568 1.38-.936l.552.72c-.496.448-1.048.816-1.656 1.104-.608.288-1.28.432-2.016.432-.752 0-1.444-.136-2.076-.408-.632-.272-1.184-.664-1.656-1.176-.472-.512-.84-1.14-1.104-1.884-.264-.744-.396-1.596-.396-2.556zm10.848 2.856c0-1.264.6-2.232 1.8-2.904 1.2-.672 3.08-1.152 5.64-1.44.016-.432-.012-.868-.084-1.308-.072-.44-.208-.832-.408-1.176-.2-.344-.48-.624-.84-.84-.36-.216-.82-.324-1.38-.324-.784 0-1.496.152-2.136.456-.64.304-1.152.6-1.536.888l-.48-.792c.208-.144.46-.304.756-.48s.624-.336.984-.48c.36-.144.756-.268 1.188-.372.432-.104.88-.156 1.344-.156.688 0 1.264.116 1.728.348.464.232.84.548 1.128.948.288.4.492.868.612 1.404.12.536.18 1.116.18 1.74v7.368h-.888l-.12-1.488h-.048c-.592.464-1.228.876-1.908 1.236-.68.36-1.404.54-2.172.54-.464 0-.896-.064-1.296-.192s-.756-.32-1.068-.576c-.312-.256-.556-.584-.732-.984-.176-.4-.264-.872-.264-1.416zm1.104-.048c0 .832.24 1.424.72 1.776.48.352 1.048.528 1.704.528.672 0 1.312-.16 1.92-.48.608-.32 1.272-.784 1.992-1.392v-3.912c-1.184.144-2.18.32-2.988.528-.808.208-1.46.456-1.956.744s-.852.616-1.068.984c-.216.368-.324.776-.324 1.224zm11.52-8.592h.912l.096 1.776h.072c.592-.592 1.2-1.084 1.824-1.476.624-.392 1.336-.588 2.136-.588 1.2 0 2.08.36 2.64 1.08.56.72.84 1.832.84 3.336v7.392h-1.056v-7.248c0-1.232-.204-2.14-.612-2.724-.408-.584-1.084-.876-2.028-.876-.688 0-1.312.18-1.872.54-.56.36-1.192.9-1.896 1.62v8.688h-1.056v-11.52zm17.544-5.736h1.056v7.536c.608-.608 1.224-1.108 1.848-1.5.624-.392 1.336-.588 2.136-.588 1.2 0 2.08.36 2.64 1.08.56.72.84 1.832.84 3.336v7.392h-1.056v-7.248c0-1.232-.204-2.14-.612-2.724-.408-.584-1.084-.876-2.028-.876-.688 0-1.312.18-1.872.54-.56.36-1.192.9-1.896 1.62v8.688h-1.056v-17.256zm11.712 11.52c0-.96.14-1.82.42-2.58.28-.76.656-1.396 1.128-1.908.472-.512 1.02-.904 1.644-1.176.624-.272 1.28-.408 1.968-.408s1.348.136 1.98.408c.632.272 1.184.664 1.656 1.176.472.512.848 1.148 1.128 1.908.28.76.42 1.62.42 2.58s-.14 1.812-.42 2.556c-.28.744-.656 1.372-1.128 1.884-.472.512-1.024.904-1.656 1.176-.632.272-1.292.408-1.98.408s-1.344-.136-1.968-.408c-.624-.272-1.172-.664-1.644-1.176-.472-.512-.848-1.14-1.128-1.884-.28-.744-.42-1.596-.42-2.556zm1.104 0c0 .752.104 1.44.312 2.064.208.624.492 1.16.852 1.608.36.448.788.796 1.284 1.044s1.032.372 1.608.372c.576 0 1.116-.124 1.62-.372s.936-.596 1.296-1.044c.36-.448.644-.984.852-1.608.208-.624.312-1.312.312-2.064 0-.768-.104-1.464-.312-2.088-.208-.624-.492-1.164-.852-1.62-.36-.456-.792-.808-1.296-1.056s-1.044-.372-1.62-.372c-.576 0-1.112.124-1.608.372s-.924.6-1.284 1.056c-.36.456-.644.996-.852 1.62-.208.624-.312 1.32-.312 2.088zm11.88 3.648c.496.416 1.024.764 1.584 1.044s1.256.42 2.088.42c.912 0 1.596-.228 2.052-.684.456-.456.684-.988.684-1.596 0-.352-.084-.664-.252-.936-.168-.272-.388-.504-.66-.696-.272-.192-.572-.36-.9-.504-.328-.144-.66-.28-.996-.408-.432-.16-.868-.328-1.308-.504-.44-.176-.836-.388-1.188-.636s-.636-.544-.852-.888c-.216-.344-.324-.764-.324-1.26 0-.416.08-.812.24-1.188.16-.376.4-.704.72-.984.32-.28.708-.5 1.164-.66.456-.16.988-.24 1.596-.24.608 0 1.204.112 1.788.336.584.224 1.084.512 1.5.864l-.576.744c-.384-.288-.792-.532-1.224-.732-.432-.2-.944-.3-1.536-.3-.448 0-.832.06-1.152.18-.32.12-.588.276-.804.468-.216.192-.376.416-.48.672-.104.256-.156.512-.156.768 0 .336.076.62.228.852.152.232.356.436.612.612s.548.332.876.468c.328.136.66.268.996.396l1.344.528c.448.176.852.392 1.212.648s.652.572.876.948c.224.376.336.844.336 1.404 0 .432-.084.844-.252 1.236-.168.392-.42.736-.756 1.032-.336.296-.744.532-1.224.708-.48.176-1.032.264-1.656.264-.864 0-1.656-.156-2.376-.468-.72-.312-1.336-.684-1.848-1.116l.624-.792zm10.8-8.52h-1.8v-.816l1.824-.096.144-3.336h.912v3.336h3.336v.912h-3.336v7.512c0 .368.028.7.084.996.056.296.156.552.3.768.144.216.34.384.588.504.248.12.572.18.972.18.224 0 .468-.036.732-.108.264-.072.5-.156.708-.252l.288.864c-.336.128-.672.232-1.008.312-.336.08-.624.12-.864.12-.56 0-1.024-.084-1.392-.252-.368-.168-.664-.404-.888-.708-.224-.304-.38-.672-.468-1.104-.088-.432-.132-.904-.132-1.416v-7.416zm6.648 13.608c.544-.288.984-.676 1.32-1.164.336-.488.512-1.068.528-1.74l-.288.024c-.272 0-.508-.088-.708-.264-.2-.176-.3-.424-.3-.744s.104-.568.312-.744c.208-.176.448-.264.72-.264.368 0 .664.152.888.456.224.304.336.72.336 1.248 0 .88-.232 1.656-.696 2.328-.464.672-1.056 1.2-1.776 1.584l-.336-.72zm10.128-8.736c0-.96.144-1.82.432-2.58.288-.76.672-1.396 1.152-1.908.48-.512 1.036-.904 1.668-1.176.632-.272 1.3-.408 2.004-.408.8 0 1.468.144 2.004.432.536.288.996.616 1.38.984l-.624.744c-.368-.352-.776-.644-1.224-.876-.448-.232-.952-.348-1.512-.348-.592 0-1.14.124-1.644.372s-.944.6-1.32 1.056c-.376.456-.672.996-.888 1.62-.216.624-.324 1.32-.324 2.088 0 .752.1 1.44.3 2.064.2.624.48 1.16.84 1.608.36.448.8.796 1.32 1.044s1.092.372 1.716.372c.608 0 1.172-.128 1.692-.384s.98-.568 1.38-.936l.552.72c-.496.448-1.048.816-1.656 1.104-.608.288-1.28.432-2.016.432-.752 0-1.444-.136-2.076-.408-.632-.272-1.184-.664-1.656-1.176-.472-.512-.84-1.14-1.104-1.884-.264-.744-.396-1.596-.396-2.556zm11.568-5.784h1.056v7.248c0 1.232.204 2.14.612 2.724.408.584 1.076.876 2.004.876.688 0 1.312-.188 1.872-.564.56-.376 1.176-.972 1.848-1.788v-8.496h1.056v11.52h-.888l-.12-1.92h-.048c-.56.672-1.152 1.208-1.776 1.608-.624.4-1.336.6-2.136.6-1.2 0-2.08-.36-2.64-1.08-.56-.72-.84-1.832-.84-3.336v-7.392zm12.048 9.432c.496.416 1.024.764 1.584 1.044s1.256.42 2.088.42c.912 0 1.596-.228 2.052-.684.456-.456.684-.988.684-1.596 0-.352-.084-.664-.252-.936-.168-.272-.388-.504-.66-.696-.272-.192-.572-.36-.9-.504-.328-.144-.66-.28-.996-.408-.432-.16-.868-.328-1.308-.504-.44-.176-.836-.388-1.188-.636s-.636-.544-.852-.888c-.216-.344-.324-.764-.324-1.26 0-.416.08-.812.24-1.188.16-.376.4-.704.72-.984.32-.28.708-.5 1.164-.66.456-.16.988-.24 1.596-.24.608 0 1.204.112 1.788.336.584.224 1.084.512 1.5.864l-.576.744c-.384-.288-.792-.532-1.224-.732-.432-.2-.944-.3-1.536-.3-.448 0-.832.06-1.152.18-.32.12-.588.276-.804.468-.216.192-.376.416-.48.672-.104.256-.156.512-.156.768 0 .336.076.62.228.852.152.232.356.436.612.612s.548.332.876.468c.328.136.66.268.996.396l1.344.528c.448.176.852.392 1.212.648s.652.572.876.948c.224.376.336.844.336 1.404 0 .432-.084.844-.252 1.236-.168.392-.42.736-.756 1.032-.336.296-.744.532-1.224.708-.48.176-1.032.264-1.656.264-.864 0-1.656-.156-2.376-.468-.72-.312-1.336-.684-1.848-1.116l.624-.792zm10.8-8.52h-1.8v-.816l1.824-.096.144-3.336h.912v3.336h3.336v.912h-3.336v7.512c0 .368.028.7.084.996.056.296.156.552.3.768.144.216.34.384.588.504.248.12.572.18.972.18.224 0 .468-.036.732-.108.264-.072.5-.156.708-.252l.288.864c-.336.128-.672.232-1.008.312-.336.08-.624.12-.864.12-.56 0-1.024-.084-1.392-.252-.368-.168-.664-.404-.888-.708-.224-.304-.38-.672-.468-1.104-.088-.432-.132-.904-.132-1.416v-7.416zm6.024 4.872c0-.96.14-1.82.42-2.58.28-.76.656-1.396 1.128-1.908.472-.512 1.02-.904 1.644-1.176.624-.272 1.28-.408 1.968-.408s1.348.136 1.98.408c.632.272 1.184.664 1.656 1.176.472.512.848 1.148 1.128 1.908.28.76.42 1.62.42 2.58s-.14 1.812-.42 2.556c-.28.744-.656 1.372-1.128 1.884-.472.512-1.024.904-1.656 1.176-.632.272-1.292.408-1.98.408s-1.344-.136-1.968-.408c-.624-.272-1.172-.664-1.644-1.176-.472-.512-.848-1.14-1.128-1.884-.28-.744-.42-1.596-.42-2.556zm1.104 0c0 .752.104 1.44.312 2.064.208.624.492 1.16.852 1.608.36.448.788.796 1.284 1.044s1.032.372 1.608.372c.576 0 1.116-.124 1.62-.372s.936-.596 1.296-1.044c.36-.448.644-.984.852-1.608.208-.624.312-1.312.312-2.064 0-.768-.104-1.464-.312-2.088-.208-.624-.492-1.164-.852-1.62-.36-.456-.792-.808-1.296-1.056s-1.044-.372-1.62-.372c-.576 0-1.112.124-1.608.372s-.924.6-1.284 1.056c-.36.456-.644.996-.852 1.62-.208.624-.312 1.32-.312 2.088zm12.696-5.784h.912l.096 1.776h.072c.512-.592 1.084-1.084 1.716-1.476.632-.392 1.268-.588 1.908-.588.928 0 1.64.212 2.136.636.496.424.848.996 1.056 1.716.672-.72 1.324-1.292 1.956-1.716.632-.424 1.284-.636 1.956-.636 2.304 0 3.456 1.472 3.456 4.416v7.392h-1.08v-7.248c0-1.232-.208-2.14-.624-2.724-.416-.584-1.064-.876-1.944-.876-1.04 0-2.192.72-3.456 2.16v8.688h-1.056v-7.248c0-1.232-.208-2.14-.624-2.724-.416-.584-1.072-.876-1.968-.876-1.04 0-2.192.72-3.456 2.16v8.688h-1.056v-11.52zm20.04-2.784c-.272 0-.5-.088-.684-.264-.184-.176-.276-.4-.276-.672 0-.304.092-.54.276-.708.184-.168.412-.252.684-.252.272 0 .5.084.684.252.184.168.276.404.276.708 0 .272-.092.496-.276.672-.184.176-.412.264-.684.264zm-.552 2.784h1.056v11.52h-1.056v-11.52zm3.936 10.944l6.816-10.032h-6.072v-.912h7.44v.552l-6.792 10.032h7.032v.936h-8.424v-.576zm10.056-5.16c0-.944.14-1.792.42-2.544.28-.752.656-1.388 1.128-1.908.472-.52 1.008-.92 1.608-1.2.6-.28 1.22-.42 1.86-.42 1.376 0 2.456.464 3.24 1.392.784.928 1.176 2.24 1.176 3.936v.432c0 .144-.016.288-.048.432h-8.304c.016.72.128 1.388.336 2.004.208.616.5 1.144.876 1.584.376.44.828.784 1.356 1.032.528.248 1.12.372 1.776.372.624 0 1.188-.092 1.692-.276.504-.184.972-.436 1.404-.756l.432.816c-.464.272-.972.528-1.524.768s-1.252.36-2.1.36c-.736 0-1.428-.136-2.076-.408-.648-.272-1.212-.668-1.692-1.188-.48-.52-.86-1.152-1.14-1.896-.28-.744-.42-1.588-.42-2.532zm8.424-.696c0-1.488-.304-2.604-.912-3.348-.608-.744-1.432-1.116-2.472-1.116-.496 0-.968.104-1.416.312-.448.208-.852.504-1.212.888s-.656.852-.888 1.404c-.232.552-.38 1.172-.444 1.86h7.344zm-175.764 36.808c.656 0 1.28-.156 1.872-.468.592-.312 1.136-.724 1.632-1.236-.848-.768-1.668-1.632-2.46-2.592-.792-.96-1.468-1.952-2.028-2.976-.352.272-.684.552-.996.84-.312.288-.588.588-.828.9-.24.312-.428.64-.564.984-.136.344-.204.708-.204 1.092 0 .528.096 1.004.288 1.428.192.424.448.784.768 1.08.32.296.7.528 1.14.696.44.168.9.252 1.38.252zm-1.488-12c0 .528.08 1.076.24 1.644.16.568.376 1.14.648 1.716.4-.288.784-.576 1.152-.864.368-.288.696-.592.984-.912.288-.32.516-.652.684-.996.168-.344.252-.724.252-1.14 0-.256-.032-.508-.096-.756s-.164-.468-.3-.66c-.136-.192-.312-.348-.528-.468-.216-.12-.484-.18-.804-.18-.704 0-1.252.256-1.644.768-.392.512-.588 1.128-.588 1.848zm9.096 12.912c-1.04-.368-2.168-1.032-3.384-1.992-.576.592-1.216 1.072-1.92 1.44-.704.368-1.504.552-2.4.552-.624 0-1.216-.1-1.776-.3-.56-.2-1.044-.488-1.452-.864-.408-.376-.732-.828-.972-1.356-.24-.528-.36-1.12-.36-1.776 0-.528.092-1.008.276-1.44.184-.432.424-.836.72-1.212s.64-.728 1.032-1.056c.392-.328.796-.644 1.212-.948-.32-.672-.576-1.34-.768-2.004-.192-.664-.288-1.3-.288-1.908 0-.512.08-.984.24-1.416.16-.432.384-.804.672-1.116.288-.312.632-.556 1.032-.732.4-.176.84-.264 1.32-.264.864 0 1.52.272 1.968.816.448.544.672 1.232.672 2.064 0 .512-.104.984-.312 1.416-.208.432-.484.836-.828 1.212s-.736.736-1.176 1.08c-.44.344-.884.684-1.332 1.02.56 1.008 1.228 1.984 2.004 2.928s1.572 1.776 2.388 2.496c.56-.72 1.048-1.516 1.464-2.388.416-.872.76-1.812 1.032-2.82h1.032c-.32 1.088-.708 2.124-1.164 3.108-.456.984-1.004 1.884-1.644 2.7.56.448 1.096.82 1.608 1.116.512.296 1 .532 1.464.708l-.36.936zm12.072-16.584c-.24-.128-.476-.216-.708-.264-.232-.048-.46-.072-.684-.072-.608 0-1.06.228-1.356.684-.296.456-.444 1.1-.444 1.932v2.496h2.664v.912h-2.664v10.608h-1.056v-10.608h-1.584v-.816l1.584-.096v-2.568c0-1.152.248-2.016.744-2.592.496-.576 1.2-.864 2.112-.864.56 0 1.12.128 1.68.384l-.288.864zm1.2 4.776h1.056v7.248c0 1.232.204 2.14.612 2.724.408.584 1.076.876 2.004.876.688 0 1.312-.188 1.872-.564.56-.376 1.176-.972 1.848-1.788v-8.496h1.056v11.52h-.888l-.12-1.92h-.048c-.56.672-1.152 1.208-1.776 1.608-.624.4-1.336.6-2.136.6-1.2 0-2.08-.36-2.64-1.08-.56-.72-.84-1.832-.84-3.336v-7.392zm12.864-5.736h1.056v15.864c0 .256.048.444.144.564.096.12.216.18.36.18h.156l.276-.048.192.864-.336.084c-.112.024-.256.036-.432.036-.944 0-1.416-.608-1.416-1.824v-15.72zm5.688 0h1.056v15.864c0 .256.048.444.144.564.096.12.216.18.36.18h.156l.276-.048.192.864-.336.084c-.112.024-.256.036-.432.036-.944 0-1.416-.608-1.416-1.824v-15.72zm4.296 21.336c.128.048.272.092.432.132.16.04.328.06.504.06.72 0 1.32-.288 1.8-.864.48-.576.864-1.304 1.152-2.184l.312-1.008-4.728-11.736h1.152l2.784 7.248.588 1.584c.216.576.436 1.12.66 1.632h.096c.176-.512.356-1.056.54-1.632.184-.576.356-1.104.516-1.584l2.472-7.248h1.08l-4.56 12.96c-.16.48-.356.948-.588 1.404-.232.456-.504.864-.816 1.224-.312.36-.672.648-1.08.864-.408.216-.868.324-1.38.324-.432 0-.824-.08-1.176-.24l.24-.936zm15.672-9.816c0-.96.144-1.82.432-2.58.288-.76.672-1.396 1.152-1.908.48-.512 1.036-.904 1.668-1.176.632-.272 1.3-.408 2.004-.408.8 0 1.468.144 2.004.432.536.288.996.616 1.38.984l-.624.744c-.368-.352-.776-.644-1.224-.876-.448-.232-.952-.348-1.512-.348-.592 0-1.14.124-1.644.372s-.944.6-1.32 1.056c-.376.456-.672.996-.888 1.62-.216.624-.324 1.32-.324 2.088 0 .752.1 1.44.3 2.064.2.624.48 1.16.84 1.608.36.448.8.796 1.32 1.044s1.092.372 1.716.372c.608 0 1.172-.128 1.692-.384s.98-.568 1.38-.936l.552.72c-.496.448-1.048.816-1.656 1.104-.608.288-1.28.432-2.016.432-.752 0-1.444-.136-2.076-.408-.632-.272-1.184-.664-1.656-1.176-.472-.512-.84-1.14-1.104-1.884-.264-.744-.396-1.596-.396-2.556zm10.368 0c0-.96.14-1.82.42-2.58.28-.76.656-1.396 1.128-1.908.472-.512 1.02-.904 1.644-1.176.624-.272 1.28-.408 1.968-.408s1.348.136 1.98.408c.632.272 1.184.664 1.656 1.176.472.512.848 1.148 1.128 1.908.28.76.42 1.62.42 2.58s-.14 1.812-.42 2.556c-.28.744-.656 1.372-1.128 1.884-.472.512-1.024.904-1.656 1.176-.632.272-1.292.408-1.98.408s-1.344-.136-1.968-.408c-.624-.272-1.172-.664-1.644-1.176-.472-.512-.848-1.14-1.128-1.884-.28-.744-.42-1.596-.42-2.556zm1.104 0c0 .752.104 1.44.312 2.064.208.624.492 1.16.852 1.608.36.448.788.796 1.284 1.044s1.032.372 1.608.372c.576 0 1.116-.124 1.62-.372s.936-.596 1.296-1.044c.36-.448.644-.984.852-1.608.208-.624.312-1.312.312-2.064 0-.768-.104-1.464-.312-2.088-.208-.624-.492-1.164-.852-1.62-.36-.456-.792-.808-1.296-1.056s-1.044-.372-1.62-.372c-.576 0-1.112.124-1.608.372s-.924.6-1.284 1.056c-.36.456-.644.996-.852 1.62-.208.624-.312 1.32-.312 2.088zm12.696-5.784h.912l.096 1.776h.072c.592-.592 1.2-1.084 1.824-1.476.624-.392 1.336-.588 2.136-.588 1.2 0 2.08.36 2.64 1.08.56.72.84 1.832.84 3.336v7.392h-1.056v-7.248c0-1.232-.204-2.14-.612-2.724-.408-.584-1.084-.876-2.028-.876-.688 0-1.312.18-1.872.54-.56.36-1.192.9-1.896 1.62v8.688h-1.056v-11.52zm13.032.912h-1.8v-.816l1.824-.096.144-3.336h.912v3.336h3.336v.912h-3.336v7.512c0 .368.028.7.084.996.056.296.156.552.3.768.144.216.34.384.588.504.248.12.572.18.972.18.224 0 .468-.036.732-.108.264-.072.5-.156.708-.252l.288.864c-.336.128-.672.232-1.008.312-.336.08-.624.12-.864.12-.56 0-1.024-.084-1.392-.252-.368-.168-.664-.404-.888-.708-.224-.304-.38-.672-.468-1.104-.088-.432-.132-.904-.132-1.416v-7.416zm7.224-.912h.912l.096 2.136h.072c.384-.72.852-1.304 1.404-1.752.552-.448 1.172-.672 1.86-.672.224 0 .424.016.6.048s.36.096.552.192l-.24.96c-.192-.08-.36-.132-.504-.156-.144-.024-.328-.036-.552-.036-.512 0-1.052.22-1.62.66-.568.44-1.076 1.204-1.524 2.292v7.848h-1.056v-11.52zm6.408 5.784c0-.96.14-1.82.42-2.58.28-.76.656-1.396 1.128-1.908.472-.512 1.02-.904 1.644-1.176.624-.272 1.28-.408 1.968-.408s1.348.136 1.98.408c.632.272 1.184.664 1.656 1.176.472.512.848 1.148 1.128 1.908.28.76.42 1.62.42 2.58s-.14 1.812-.42 2.556c-.28.744-.656 1.372-1.128 1.884-.472.512-1.024.904-1.656 1.176-.632.272-1.292.408-1.98.408s-1.344-.136-1.968-.408c-.624-.272-1.172-.664-1.644-1.176-.472-.512-.848-1.14-1.128-1.884-.28-.744-.42-1.596-.42-2.556zm1.104 0c0 .752.104 1.44.312 2.064.208.624.492 1.16.852 1.608.36.448.788.796 1.284 1.044s1.032.372 1.608.372c.576 0 1.116-.124 1.62-.372s.936-.596 1.296-1.044c.36-.448.644-.984.852-1.608.208-.624.312-1.312.312-2.064 0-.768-.104-1.464-.312-2.088-.208-.624-.492-1.164-.852-1.62-.36-.456-.792-.808-1.296-1.056s-1.044-.372-1.62-.372c-.576 0-1.112.124-1.608.372s-.924.6-1.284 1.056c-.36.456-.644.996-.852 1.62-.208.624-.312 1.32-.312 2.088zm12.696-11.52h1.056v15.864c0 .256.048.444.144.564.096.12.216.18.36.18h.156l.276-.048.192.864-.336.084c-.112.024-.256.036-.432.036-.944 0-1.416-.608-1.416-1.824v-15.72z" fill="#15447A" sketch:type="MSShapeGroup"/></g></svg>