<svg xmlns:sketch="http://www.bohemiancoding.com/sketch/ns" xmlns="http://www.w3.org/2000/svg" width="260" height="150" viewBox="0 0 260 150"><title>icon-calendar</title><desc>Created with Sketch.</desc><g sketch:type="MSLayerGroup"><path sketch:type="MSShapeGroup" fill="#222" d="M62 25.01v101.98c0 6.629 5.375 12.01 12.002 12.01h111.996c6.636 0 12.002-5.374 12.002-12.01v-101.98c0-6.629-5.375-12.01-12.002-12.01h-111.996c-6.636 0-12.002 5.374-12.002 12.01zm31-16.017v12.015c0 2.748 2.243 4.992 5 4.992 2.758 0 5-2.235 5-4.993v-12.014c0-2.749-2.243-4.993-5-4.993-2.758 0-5 2.235-5 4.993zm64 0v12.015c0 2.749 2.242 4.993 5 4.993s5-2.235 5-4.993v-12.015c0-2.749-2.242-4.993-5-4.993s-5 2.235-5 4.993zm-32 0v12.015c0 2.749 2.243 4.993 5 4.993 2.758 0 5-2.235 5-4.993v-12.015c0-2.749-2.242-4.993-5-4.993s-5 2.235-5 4.993zm-60 16.017c0-4.98 4.024-9.01 9.002-9.01h111.996c4.969 0 9.002 4.037 9.002 9.01v101.98c0 4.979-4.023 9.01-9.002 9.01h-111.996c-4.97 0-9.002-4.037-9.002-9.01v-101.98zm-2 0v101.98c0 6.076 4.928 11.01 11.002 11.01h111.996c6.084 0 11.002-4.926 11.002-11.01v-101.98c0-6.077-4.928-11.01-11.002-11.01h-111.996c-6.084 0-11.002 4.926-11.002 11.01z"/><path sketch:type="MSShapeGroup" fill="#D3D3D8" d="M64 125.99c0 6.076 4.928 11.01 11.002 11.01h109.996c6.084 0 11.002-4.926 11.002-11.01v-9.98h-132v9.98z"/><path sketch:type="MSShapeGroup" fill="#fff" d="M74 15h112c5.523 0 10 4.477 10 10v98c0 5.523-4.477 10-10 10h-112c-5.523 0-10-4.477-10-10v-98c0-5.523 4.477-10 10-10z"/><path sketch:type="MSShapeGroup" fill="#34D882" d="M65 21l4.663-5h120.681l4.656 5v23h-130v-23z"/><path sketch:type="MSShapeGroup" fill="#222" d="M65 25.01c0-4.98 4.024-9.01 9.002-9.01h111.996c4.971 0 9.002 4.034 9.002 9.01v97.98c0 4.98-4.023 9.01-9.002 9.01h-111.996c-4.972 0-9.002-4.033-9.002-9.01v-97.98zm-2 0v97.98c0 6.08 4.926 11.01 11.002 11.01h111.996c6.084 0 11.002-4.926 11.002-11.01v-97.98c0-6.08-4.926-11.01-11.002-11.01h-111.996c-6.084 0-11.002 4.926-11.002 11.01z"/><path sketch:type="MSShapeGroup" fill="#E9E9EB" d="M65 45h21v22h-21v-22zm21 22h22v22h-22v-22zm-21 22h21v22h-21v-22zm21 22h22v21h-22v-21zm22-66h22v22h-22v-22zm22 22h22v22h-22v-22zm-22 22h22v22h-22v-22zm22 22h22v21h-22v-21zm21-66h22v22h-22v-22zm22 22h22v22h-22v-22zm-22 22h22v22h-22v-22zm22 22h22v12.003c0 4.97-4.035 8.997-8.996 8.997h-13.004v-21z"/><path sketch:type="MSShapeGroup" fill="#fff" d="M95 8.993c0-1.653 1.347-2.993 3-2.993 1.657 0 3 1.353 3 2.993v12.015c0 1.652-1.347 2.992-3 2.992-1.657 0-3-1.353-3-2.993v-12.014zm64 0c0-1.653 1.348-2.993 3-2.993 1.656 0 3 1.353 3 2.993v12.015c0 1.653-1.348 2.993-3 2.993-1.656 0-3-1.353-3-2.993v-12.015zm-32 0c0-1.653 1.347-2.993 3-2.993 1.656 0 3 1.353 3 2.993v12.015c0 1.653-1.348 2.993-3 2.993-1.657 0-3-1.353-3-2.993v-12.015z"/><path sketch:type="MSShapeGroup" fill="#34D882" d="M119 84c3.313 0 6-2.688 6-6 0-3.313-2.687-6-6-6s-6 2.687-6 6c0 3.312 2.687 6 6 6zm17 11h10v10h-10v-10zm27-.656l5.656 5.656-5.656 5.656-5.656-5.656 5.656-5.656zm-66 .656l6 10h-12l6-10zm66-35.5l-4.113 2.163.785-4.582-3.329-3.245 4.601-.668 2.056-4.168 2.057 4.168 4.603.668-3.329 3.245.786 4.582-4.117-2.163z"/><path fill="#222" d="M64 38h132v2h-132v-2zm0 8h21v20h-21v2h21v20h-21v2h21v20h-21v2h21v21h2v-21h20v20h2v-20h20v20h2v-20h20v20h2v-20h20v20h2v-20h21v-2h-21v-20h21v-2h-21v-20h21v-2h-21v-20h21v-2h-132v2zm89 0h20v20h-20v-20zm0 22h20v20h-20v-20zm0 22h20v20h-20v-20zm-22-44h20v20h-20v-20zm0 22h20v20h-20v-20zm0 22h20v20h-20v-20zm-22-44h20v20h-20v-20zm0 22h20v20h-20v-20zm0 22h20v20h-20v-20zm-22-44h20v20h-20v-20zm0 22h20v20h-20v-20zm0 22h20v20h-20v-20zm75-64.999c2.206 0 4-1.788 4-3.993v-12.015c0-2.197-1.795-3.993-4-3.993-2.206 0-4 1.788-4 3.993v12.015c0 2.196 1.795 3.993 4 3.993zm-2-16.008c0-1.099.896-1.993 2-1.993 1.1 0 2 .9 2 1.993v12.015c0 1.099-.896 1.993-2 1.993-1.1 0-2-.9-2-1.993v-12.015zm-62 16.007c2.206 0 4-1.788 4-3.993v-12.014c0-2.197-1.795-3.993-4-3.993-2.206 0-4 1.788-4 3.993v12.015c0 2.196 1.795 3.992 4 3.992zm-2-16.007c0-1.099.897-1.993 2-1.993 1.1 0 2 .9 2 1.993v12.015c0 1.098-.897 1.992-2 1.992-1.1 0-2-.9-2-1.993v-12.014zm34 16.008c2.206 0 4-1.788 4-3.993v-12.015c0-2.197-1.795-3.993-4-3.993-2.206 0-4 1.788-4 3.993v12.015c0 2.196 1.795 3.993 4 3.993zm-2-16.008c0-1.099.897-1.993 2-1.993 1.1 0 2 .9 2 1.993v12.015c0 1.099-.896 1.993-2 1.993-1.1 0-2-.9-2-1.993v-12.015zm41.8 43.853l-4.079-.593-1.826-3.696c-.367-.743-1.426-.743-1.793 0l-1.824 3.696-4.079.593c-.82.119-1.148 1.127-.556 1.706l2.953 2.879-.695 4.063c-.142.817.718 1.44 1.451 1.054l3.648-1.919 3.648 1.918c.732.386 1.592-.237 1.451-1.054l-.697-4.064 2.953-2.878c.594-.577.266-1.585-.555-1.705zm-7.265 5.769l-2.322 1.22.443-2.585c.057-.324-.051-.655-.287-.885l-1.877-1.83 2.594-.377c.326-.047.607-.252.754-.547l1.16-2.352 1.161 2.352c.146.295.428.5.754.547l2.594.376-1.877 1.831c-.235.229-.344.561-.286.885l.442 2.586-2.322-1.221c-.292-.153-.64-.153-.931 0zm-64.678 35.869c-.388-.646-1.327-.646-1.715 0l-6 10c-.399.668.081 1.516.858 1.516h12c.777 0 1.257-.848.857-1.516l-6-10zm-.857 2.459l4.234 7.057h-8.468l4.234-7.057zm49-2.943h-10c-.553 0-1 .447-1 1v10c0 .553.447 1 1 1h10c.553 0 1-.447 1-1v-10c0-.553-.447-1-1-1zm-1 2v8h-8v-8h8zm-26-25c-3.866 0-7 3.134-7 7s3.134 7 7 7 7-3.134 7-7-3.134-7-7-7zm0 12c-2.761 0-5-2.238-5-5 0-2.761 2.239-5 5-5s5 2.239 5 5c0 2.762-2.239 5-5 5zm44.707 10.637c-.391-.391-1.023-.391-1.414 0l-5.656 5.656c-.391.391-.391 1.023 0 1.414l5.656 5.656c.391.391 1.023.391 1.414 0l5.656-5.656c.391-.391.391-1.023 0-1.414l-5.656-5.656zm-4.949 6.363l4.242-4.242 4.242 4.242-4.242 4.242-4.242-4.242z"/><g transform="translate(5 2)" sketch:type="MSShapeGroup" fill="#25B06C"><path d="M40 7v-2s5 0 5-5h2s0 5 5 5v2s-5 0-5 5h-2s0-5-5-5zm-8 86c3.313 0 6-2.688 6-6s-2.687-6-6-6-6 2.688-6 6 2.687 6 6 6zm0-4c-1.104 0-2-.896-2-2s.896-2 2-2 2 .896 2 2-.896 2-2 2z"/><circle cx="3" cy="49" r="3"/><path d="M238 97v-2s5 0 5-5h2s0 5 5 5v2s-5 0-5 5h-2s0-5-5-5zm-18-66c3.312 0 6-2.687 6-6s-2.688-6-6-6-6 2.687-6 6 2.688 6 6 6zm0-4c-1.104 0-2-.896-2-2s.896-2 2-2 2 .896 2 2-.896 2-2 2z"/><circle cx="214" cy="122" r="3"/></g></g></svg>