<svg width="110" height="94" viewBox="0 0 110 94" xmlns="http://www.w3.org/2000/svg"><path d="M80.873 84h-51.746c-16.064 0-29.127-13.112-29.127-29.231 0-7.686 2.949-14.947 8.307-20.441 4.694-4.808 10.774-7.801 17.352-8.58.777-6.601 3.756-12.704 8.551-17.413 5.475-5.379 12.708-8.335 20.368-8.335 7.658 0 14.893 2.955 20.368 8.333 4.775 4.689 7.746 10.759 8.543 17.325 14.838 1.334 26.51 13.882 26.51 29.114 0 16.116-13.071 29.229-29.129 29.229h.002zm.099-5.481h.223c12.851 0 23.305-10.55 23.305-23.518 0-12.966-10.454-23.515-23.305-23.515h-.234c-1.678 0-3.052-1.347-3.09-3.045-.29-12.665-10.739-22.963-23.296-22.963-12.557 0-23.011 10.303-23.298 22.968-.038 1.666-1.368 3.009-3.021 3.047-12.548.292-22.757 10.837-22.757 23.511 0 12.968 10.454 23.518 23.305 23.518h.189l.074-.004.201.004h51.698l.007-.002zm-11.457-25.501c-1.837-1.202-1.928-3.41-1.932-3.507-.013-.6-.502-1.072-1.1-1.063-.599.011-1.074.507-1.063 1.103.004.079.035 1.116.528 2.338-6.54 6.211-16.817 6.22-23.37.037.506-1.24.539-2.294.539-2.373.011-.596-.462-1.087-1.056-1.103-.588-.018-1.087.463-1.107 1.059 0 .088-.088 2.305-1.93 3.507-.502.331-.643 1.004-.315 1.504.207.318.55.492.907.492.202 0 .407-.057.59-.176.473-.309.869-.662 1.202-1.037 3.64 3.286 8.239 4.929 12.838 4.929 4.61 0 9.22-1.65 12.867-4.952.334.379.735.741 1.221 1.059.18.119.387.176.59.176.352 0 .698-.176.907-.494.326-.503.185-1.178-.315-1.504v.004z" fill="#fff"/></svg>
